<?xml version="1.0" encoding="utf-8"?>
<!-- Generator: Adobe Illustrator 19.0.0, SVG Export Plug-In . SVG Version: 6.00 Build 0)  -->
<svg version="1.1" id="Capa_1" xmlns="http://www.w3.org/2000/svg" xmlns:xlink="http://www.w3.org/1999/xlink" x="0px" y="0px"
	 viewBox="-229 378.6 151.9 36.4" style="enable-background:new -229 378.6 151.9 36.4;" xml:space="preserve">
<style type="text/css">
	.st0{enable-background:new    ;}
	.st1{fill:#FFFFFF;}
</style>
<g class="st0">
	<path class="st1" d="M-225.1,387.9v4.4h-2.4v-11.4h3.3c1.6,0,2.7,0.3,3.4,0.8c0.7,0.6,1.1,1.4,1.1,2.6c0,0.7-0.2,1.3-0.6,1.8
		c-0.4,0.5-0.9,0.9-1.6,1.2c1.7,2.6,2.8,4.2,3.4,5h-2.7l-2.7-4.4H-225.1z M-225.1,386h0.8c0.8,0,1.3-0.1,1.7-0.4
		c0.4-0.3,0.5-0.7,0.5-1.2c0-0.5-0.2-0.9-0.6-1.2c-0.4-0.2-0.9-0.3-1.7-0.3h-0.7V386z"/>
	<path class="st1" d="M-213.2,392.5c-1.4,0-2.5-0.4-3.3-1.2c-0.8-0.8-1.2-1.9-1.2-3.3c0-1.5,0.4-2.6,1.1-3.4c0.7-0.8,1.7-1.2,3-1.2
		c1.2,0,2.2,0.4,2.9,1.1s1,1.7,1,2.9v1.2h-5.6c0,0.7,0.2,1.2,0.6,1.6s0.9,0.6,1.6,0.6c0.5,0,1-0.1,1.5-0.2s1-0.3,1.5-0.5v1.8
		c-0.4,0.2-0.9,0.4-1.3,0.5C-212,392.4-212.6,392.5-213.2,392.5z M-213.6,385.1c-0.5,0-0.9,0.2-1.2,0.5c-0.3,0.3-0.5,0.8-0.5,1.4
		h3.3c0-0.6-0.2-1-0.5-1.4S-213.1,385.1-213.6,385.1z"/>
	<path class="st1" d="M-204.2,392.5c-2.7,0-4.1-1.5-4.1-4.5c0-1.5,0.4-2.6,1.1-3.4c0.7-0.8,1.8-1.2,3.2-1.2c1,0,1.9,0.2,2.7,0.6
		l-0.7,1.8c-0.4-0.2-0.7-0.3-1-0.4c-0.3-0.1-0.6-0.1-1-0.1c-1.2,0-1.9,0.9-1.9,2.6c0,1.7,0.6,2.6,1.9,2.6c0.5,0,0.9-0.1,1.3-0.2
		s0.8-0.3,1.2-0.6v2c-0.4,0.2-0.8,0.4-1.2,0.5C-203.1,392.4-203.6,392.5-204.2,392.5z"/>
	<path class="st1" d="M-199.6,381.3c0-0.8,0.4-1.2,1.3-1.2c0.9,0,1.3,0.4,1.3,1.2c0,0.4-0.1,0.7-0.3,0.9c-0.2,0.2-0.5,0.3-1,0.3
		C-199.2,382.5-199.6,382.1-199.6,381.3z M-197.1,392.3h-2.4v-8.7h2.4V392.3z"/>
	<path class="st1" d="M-189.8,383.4c1,0,1.8,0.4,2.4,1.2c0.6,0.8,0.9,1.9,0.9,3.3c0,1.4-0.3,2.6-0.9,3.4s-1.4,1.2-2.5,1.2
		c-1,0-1.8-0.4-2.4-1.1h-0.2l-0.4,1h-1.8v-12.2h2.4v2.8c0,0.4,0,0.9-0.1,1.7h0.1C-191.7,383.8-190.9,383.4-189.8,383.4z
		 M-190.5,385.3c-0.6,0-1,0.2-1.3,0.5c-0.3,0.4-0.4,1-0.4,1.8v0.3c0,0.9,0.1,1.6,0.4,2c0.3,0.4,0.7,0.6,1.3,0.6
		c0.5,0,0.9-0.2,1.2-0.7s0.4-1.1,0.4-2s-0.1-1.5-0.4-1.9C-189.6,385.5-190,385.3-190.5,385.3z"/>
	<path class="st1" d="M-180.5,392.5c-1.4,0-2.5-0.4-3.3-1.2c-0.8-0.8-1.2-1.9-1.2-3.3c0-1.5,0.4-2.6,1.1-3.4c0.7-0.8,1.7-1.2,3-1.2
		c1.2,0,2.2,0.4,2.9,1.1s1,1.7,1,2.9v1.2h-5.6c0,0.7,0.2,1.2,0.6,1.6s0.9,0.6,1.6,0.6c0.5,0,1-0.1,1.5-0.2s1-0.3,1.5-0.5v1.8
		c-0.4,0.2-0.9,0.4-1.3,0.5C-179.3,392.4-179.9,392.5-180.5,392.5z M-180.9,385.1c-0.5,0-0.9,0.2-1.2,0.5c-0.3,0.3-0.5,0.8-0.5,1.4
		h3.3c0-0.6-0.2-1-0.5-1.4S-180.4,385.1-180.9,385.1z"/>
	<path class="st1" d="M-167.3,392.5c-2.7,0-4.1-1.5-4.1-4.5c0-1.5,0.4-2.6,1.1-3.4c0.7-0.8,1.8-1.2,3.2-1.2c1,0,1.9,0.2,2.7,0.6
		l-0.7,1.8c-0.4-0.2-0.7-0.3-1-0.4c-0.3-0.1-0.6-0.1-1-0.1c-1.2,0-1.9,0.9-1.9,2.6c0,1.7,0.6,2.6,1.9,2.6c0.5,0,0.9-0.1,1.3-0.2
		s0.8-0.3,1.2-0.6v2c-0.4,0.2-0.8,0.4-1.2,0.5C-166.2,392.4-166.7,392.5-167.3,392.5z"/>
	<path class="st1" d="M-154.7,387.9c0,1.4-0.4,2.5-1.1,3.3s-1.8,1.2-3.1,1.2c-0.8,0-1.6-0.2-2.2-0.6s-1.1-0.9-1.5-1.6
		s-0.5-1.5-0.5-2.4c0-1.4,0.4-2.5,1.1-3.3c0.7-0.8,1.8-1.2,3.1-1.2c0.8,0,1.6,0.2,2.2,0.5s1.1,0.9,1.5,1.6S-154.7,387-154.7,387.9z
		 M-160.8,387.9c0,0.9,0.1,1.5,0.4,2c0.3,0.4,0.7,0.7,1.4,0.7c0.6,0,1.1-0.2,1.4-0.7c0.3-0.4,0.4-1.1,0.4-2c0-0.9-0.1-1.5-0.4-1.9
		s-0.7-0.6-1.4-0.6c-0.6,0-1.1,0.2-1.4,0.6S-160.8,387.1-160.8,387.9z"/>
	<path class="st1" d="M-149.1,390.6c0.4,0,0.9-0.1,1.5-0.3v1.8c-0.6,0.3-1.3,0.4-2.2,0.4c-1,0-1.6-0.2-2.1-0.7
		c-0.4-0.5-0.7-1.2-0.7-2.2v-4.2h-1.1v-1l1.3-0.8l0.7-1.8h1.5v1.9h2.4v1.8h-2.4v4.2c0,0.3,0.1,0.6,0.3,0.8S-149.4,390.6-149.1,390.6
		z"/>
	<path class="st1" d="M-145.9,381.3c0-0.8,0.4-1.2,1.3-1.2s1.3,0.4,1.3,1.2c0,0.4-0.1,0.7-0.3,0.9s-0.5,0.3-1,0.3
		C-145.5,382.5-145.9,382.1-145.9,381.3z M-143.4,392.3h-2.4v-8.7h2.4V392.3z"/>
	<path class="st1" d="M-134.9,392.3h-6.9v-1.4l4-5.5h-3.8v-1.8h6.5v1.5l-3.9,5.4h4.1V392.3z"/>
	<path class="st1" d="M-127.6,392.3l-0.5-1.2h-0.1c-0.4,0.5-0.8,0.9-1.2,1.1s-1,0.3-1.7,0.3c-0.8,0-1.5-0.2-2-0.7s-0.7-1.2-0.7-2
		c0-0.9,0.3-1.6,1-2.1s1.6-0.7,2.9-0.7l1.5,0v-0.4c0-0.9-0.5-1.3-1.4-1.3c-0.7,0-1.5,0.2-2.5,0.6l-0.8-1.6c1-0.5,2.1-0.8,3.3-0.8
		c1.2,0,2.1,0.3,2.7,0.8s0.9,1.3,0.9,2.3v5.8H-127.6z M-128.3,388.3l-0.9,0c-0.7,0-1.2,0.1-1.5,0.4s-0.5,0.6-0.5,1
		c0,0.7,0.4,1,1.2,1c0.6,0,1-0.2,1.3-0.5s0.5-0.7,0.5-1.3V388.3z"/>
	<path class="st1" d="M-119.9,392.5c-2.7,0-4.1-1.5-4.1-4.5c0-1.5,0.4-2.6,1.1-3.4s1.8-1.2,3.2-1.2c1,0,1.9,0.2,2.7,0.6l-0.7,1.8
		c-0.4-0.2-0.7-0.3-1-0.4s-0.6-0.1-1-0.1c-1.2,0-1.9,0.9-1.9,2.6c0,1.7,0.6,2.6,1.9,2.6c0.5,0,0.9-0.1,1.3-0.2s0.8-0.3,1.2-0.6v2
		c-0.4,0.2-0.8,0.4-1.2,0.5S-119.3,392.5-119.9,392.5z"/>
	<path class="st1" d="M-115.3,381.3c0-0.8,0.4-1.2,1.3-1.2s1.3,0.4,1.3,1.2c0,0.4-0.1,0.7-0.3,0.9s-0.5,0.3-1,0.3
		C-114.9,382.5-115.3,382.1-115.3,381.3z M-112.9,392.3h-2.4v-8.7h2.4V392.3z"/>
	<path class="st1" d="M-102.4,387.9c0,1.4-0.4,2.5-1.1,3.3s-1.8,1.2-3.1,1.2c-0.8,0-1.6-0.2-2.2-0.6s-1.1-0.9-1.5-1.6
		s-0.5-1.5-0.5-2.4c0-1.4,0.4-2.5,1.1-3.3s1.8-1.2,3.1-1.2c0.8,0,1.6,0.2,2.2,0.5s1.1,0.9,1.5,1.6S-102.4,387-102.4,387.9z
		 M-108.5,387.9c0,0.9,0.1,1.5,0.4,2s0.7,0.7,1.4,0.7c0.6,0,1.1-0.2,1.4-0.7s0.4-1.1,0.4-2c0-0.9-0.1-1.5-0.4-1.9s-0.7-0.6-1.4-0.6
		c-0.6,0-1.1,0.2-1.4,0.6S-108.5,387.1-108.5,387.9z"/>
	<path class="st1" d="M-92.4,392.3h-2.4v-5.1c0-0.6-0.1-1.1-0.3-1.4s-0.6-0.5-1.1-0.5c-0.7,0-1.1,0.2-1.4,0.7s-0.4,1.2-0.4,2.2v4.1
		h-2.4v-8.7h1.8l0.3,1.1h0.1c0.3-0.4,0.6-0.7,1.1-1s1-0.3,1.6-0.3c1,0,1.8,0.3,2.3,0.8s0.8,1.3,0.8,2.4V392.3z"/>
	<path class="st1" d="M-86,392.5c-1.4,0-2.5-0.4-3.3-1.2s-1.2-1.9-1.2-3.3c0-1.5,0.4-2.6,1.1-3.4s1.7-1.2,3-1.2
		c1.2,0,2.2,0.4,2.9,1.1s1,1.7,1,2.9v1.2H-88c0,0.7,0.2,1.2,0.6,1.6s0.9,0.6,1.6,0.6c0.5,0,1-0.1,1.5-0.2s1-0.3,1.5-0.5v1.8
		c-0.4,0.2-0.9,0.4-1.3,0.5S-85.3,392.5-86,392.5z M-86.3,385.1c-0.5,0-0.9,0.2-1.2,0.5s-0.5,0.8-0.5,1.4h3.3c0-0.6-0.2-1-0.5-1.4
		S-85.8,385.1-86.3,385.1z"/>
	<path class="st1" d="M-74.4,389.7c0,0.9-0.3,1.6-0.9,2s-1.6,0.7-2.8,0.7c-0.6,0-1.2,0-1.6-0.1s-0.9-0.2-1.3-0.4v-2
		c0.4,0.2,0.9,0.4,1.5,0.5s1,0.2,1.5,0.2c0.9,0,1.3-0.3,1.3-0.8c0-0.2-0.1-0.3-0.2-0.5s-0.3-0.3-0.6-0.4s-0.7-0.3-1.1-0.5
		c-0.7-0.3-1.2-0.5-1.5-0.8s-0.5-0.5-0.7-0.8s-0.2-0.7-0.2-1.1c0-0.8,0.3-1.4,0.9-1.8s1.5-0.6,2.6-0.6c1.1,0,2.1,0.2,3.1,0.7
		l-0.7,1.7c-0.4-0.2-0.8-0.3-1.2-0.5s-0.8-0.2-1.2-0.2c-0.7,0-1.1,0.2-1.1,0.6c0,0.2,0.1,0.4,0.3,0.6s0.7,0.4,1.5,0.7
		c0.7,0.3,1.2,0.5,1.5,0.8s0.6,0.5,0.7,0.8S-74.4,389.3-74.4,389.7z"/>
</g>
<g class="st0">
	<path class="st1" d="M-225,410.5c-1,0-1.8-0.4-2.4-1.2s-0.9-1.9-0.9-3.3c0-1.4,0.3-2.5,0.9-3.3c0.6-0.8,1.4-1.2,2.5-1.2
		c1.1,0,1.9,0.4,2.5,1.3h0.1c-0.1-0.7-0.2-1.2-0.2-1.7v-2.8h2.4v12.2h-1.8l-0.5-1.1h-0.1C-223,410-223.9,410.5-225,410.5z
		 M-224.1,408.6c0.6,0,1.1-0.2,1.3-0.5c0.3-0.4,0.4-1,0.5-1.8V406c0-0.9-0.1-1.6-0.4-2s-0.8-0.6-1.4-0.6c-0.5,0-0.9,0.2-1.2,0.7
		c-0.3,0.5-0.4,1.1-0.4,2s0.1,1.5,0.4,1.9S-224.7,408.6-224.1,408.6z"/>
	<path class="st1" d="M-213.7,410.5c-1.4,0-2.5-0.4-3.3-1.2c-0.8-0.8-1.2-1.9-1.2-3.3c0-1.5,0.4-2.6,1.1-3.4c0.7-0.8,1.7-1.2,3-1.2
		c1.2,0,2.2,0.4,2.9,1.1s1,1.7,1,2.9v1.2h-5.6c0,0.7,0.2,1.2,0.6,1.6s0.9,0.6,1.6,0.6c0.5,0,1-0.1,1.5-0.2s1-0.3,1.5-0.5v1.8
		c-0.4,0.2-0.9,0.4-1.3,0.5C-212.4,410.4-213,410.5-213.7,410.5z M-214,403.1c-0.5,0-0.9,0.2-1.2,0.5c-0.3,0.3-0.5,0.8-0.5,1.4h3.3
		c0-0.6-0.2-1-0.5-1.4S-213.5,403.1-214,403.1z"/>
	<path class="st1" d="M-201.6,410.3h-2.4v-12.2h2.4V410.3z"/>
	<path class="st1" d="M-193.6,410.3l-0.5-1.2h-0.1c-0.4,0.5-0.8,0.9-1.2,1.1c-0.4,0.2-1,0.3-1.7,0.3c-0.8,0-1.5-0.2-2-0.7
		c-0.5-0.5-0.7-1.2-0.7-2c0-0.9,0.3-1.6,1-2.1s1.6-0.7,2.9-0.7l1.5,0v-0.4c0-0.9-0.5-1.3-1.4-1.3c-0.7,0-1.5,0.2-2.5,0.6l-0.8-1.6
		c1-0.5,2.1-0.8,3.3-0.8c1.2,0,2.1,0.3,2.7,0.8s0.9,1.3,0.9,2.3v5.8H-193.6z M-194.3,406.3l-0.9,0c-0.7,0-1.2,0.1-1.5,0.4
		c-0.3,0.2-0.5,0.6-0.5,1c0,0.7,0.4,1,1.2,1c0.6,0,1-0.2,1.3-0.5c0.3-0.3,0.5-0.7,0.5-1.3V406.3z"/>
	<path class="st1" d="M-183.4,407.7c0,0.9-0.3,1.6-0.9,2c-0.6,0.5-1.6,0.7-2.8,0.7c-0.6,0-1.2,0-1.6-0.1c-0.4-0.1-0.9-0.2-1.3-0.4
		v-2c0.4,0.2,0.9,0.4,1.5,0.5s1,0.2,1.5,0.2c0.9,0,1.3-0.3,1.3-0.8c0-0.2-0.1-0.3-0.2-0.5c-0.1-0.1-0.3-0.3-0.6-0.4
		s-0.7-0.3-1.1-0.5c-0.7-0.3-1.2-0.5-1.5-0.8c-0.3-0.2-0.5-0.5-0.7-0.8c-0.1-0.3-0.2-0.7-0.2-1.1c0-0.8,0.3-1.4,0.9-1.8
		s1.5-0.6,2.6-0.6c1.1,0,2.1,0.2,3.1,0.7l-0.7,1.7c-0.4-0.2-0.8-0.3-1.2-0.5c-0.4-0.1-0.8-0.2-1.2-0.2c-0.7,0-1.1,0.2-1.1,0.6
		c0,0.2,0.1,0.4,0.3,0.6s0.7,0.4,1.5,0.7c0.7,0.3,1.2,0.5,1.5,0.8c0.3,0.2,0.6,0.5,0.7,0.8C-183.5,406.9-183.4,407.3-183.4,407.7z"
		/>
	<path class="st1" d="M-173.4,410.5c-1.4,0-2.5-0.4-3.3-1.2c-0.8-0.8-1.2-1.9-1.2-3.3c0-1.5,0.4-2.6,1.1-3.4c0.7-0.8,1.7-1.2,3-1.2
		c1.2,0,2.2,0.4,2.9,1.1s1,1.7,1,2.9v1.2h-5.6c0,0.7,0.2,1.2,0.6,1.6s0.9,0.6,1.6,0.6c0.5,0,1-0.1,1.5-0.2s1-0.3,1.5-0.5v1.8
		c-0.4,0.2-0.9,0.4-1.3,0.5C-172.1,410.4-172.7,410.5-173.4,410.5z M-173.7,403.1c-0.5,0-0.9,0.2-1.2,0.5c-0.3,0.3-0.5,0.8-0.5,1.4
		h3.3c0-0.6-0.2-1-0.5-1.4S-173.2,403.1-173.7,403.1z"/>
	<path class="st1" d="M-160.1,410.3h-2.4v-5.1c0-0.6-0.1-1.1-0.3-1.4s-0.5-0.5-1-0.5c-0.6,0-1.1,0.2-1.3,0.7
		c-0.3,0.4-0.4,1.2-0.4,2.2v4.1h-2.4v-8.7h1.8l0.3,1.1h0.1c0.2-0.4,0.6-0.7,1-0.9c0.4-0.2,1-0.3,1.5-0.3c1.3,0,2.2,0.4,2.7,1.3h0.2
		c0.2-0.4,0.6-0.7,1-0.9c0.5-0.2,1-0.3,1.5-0.3c1,0,1.7,0.3,2.2,0.8s0.8,1.3,0.8,2.4v5.7h-2.4v-5.1c0-0.6-0.1-1.1-0.3-1.4
		s-0.5-0.5-1-0.5c-0.6,0-1,0.2-1.3,0.6s-0.4,1.1-0.4,2V410.3z"/>
	<path class="st1" d="M-147.4,410.5c-1,0-1.8-0.4-2.4-1.1h-0.1c0.1,0.7,0.1,1.2,0.1,1.3v3.5h-2.4v-12.6h1.9l0.3,1.1h0.1
		c0.6-0.9,1.4-1.3,2.5-1.3c1,0,1.8,0.4,2.4,1.2s0.9,1.9,0.9,3.3c0,0.9-0.1,1.7-0.4,2.4s-0.7,1.2-1.2,1.6S-146.7,410.5-147.4,410.5z
		 M-148.1,403.3c-0.6,0-1,0.2-1.3,0.5s-0.4,1-0.4,1.8v0.3c0,0.9,0.1,1.6,0.4,2s0.7,0.6,1.3,0.6c1.1,0,1.6-0.9,1.6-2.6
		c0-0.9-0.1-1.5-0.4-1.9S-147.5,403.3-148.1,403.3z"/>
	<path class="st1" d="M-137.2,401.4c0.3,0,0.6,0,0.8,0.1l-0.2,2.2c-0.2-0.1-0.4-0.1-0.7-0.1c-0.8,0-1.4,0.2-1.8,0.6
		s-0.6,0.9-0.6,1.6v4.4h-2.4v-8.7h1.8l0.4,1.5h0.1c0.3-0.5,0.6-0.9,1.1-1.2S-137.7,401.4-137.2,401.4z"/>
	<path class="st1" d="M-130.9,410.5c-1.4,0-2.5-0.4-3.3-1.2s-1.2-1.9-1.2-3.3c0-1.5,0.4-2.6,1.1-3.4s1.7-1.2,3-1.2
		c1.2,0,2.2,0.4,2.9,1.1s1,1.7,1,2.9v1.2h-5.6c0,0.7,0.2,1.2,0.6,1.6s0.9,0.6,1.6,0.6c0.5,0,1-0.1,1.5-0.2s1-0.3,1.5-0.5v1.8
		c-0.4,0.2-0.9,0.4-1.3,0.5S-130.2,410.5-130.9,410.5z M-131.2,403.1c-0.5,0-0.9,0.2-1.2,0.5s-0.5,0.8-0.5,1.4h3.3
		c0-0.6-0.2-1-0.5-1.4S-130.7,403.1-131.2,403.1z"/>
	<path class="st1" d="M-119.3,407.7c0,0.9-0.3,1.6-0.9,2s-1.6,0.7-2.8,0.7c-0.6,0-1.2,0-1.6-0.1s-0.9-0.2-1.3-0.4v-2
		c0.4,0.2,0.9,0.4,1.5,0.5s1,0.2,1.5,0.2c0.9,0,1.3-0.3,1.3-0.8c0-0.2-0.1-0.3-0.2-0.5s-0.3-0.3-0.6-0.4s-0.7-0.3-1.1-0.5
		c-0.7-0.3-1.2-0.5-1.5-0.8s-0.5-0.5-0.7-0.8s-0.2-0.7-0.2-1.1c0-0.8,0.3-1.4,0.9-1.8s1.5-0.6,2.6-0.6c1.1,0,2.1,0.2,3.1,0.7
		l-0.7,1.7c-0.4-0.2-0.8-0.3-1.2-0.5s-0.8-0.2-1.2-0.2c-0.7,0-1.1,0.2-1.1,0.6c0,0.2,0.1,0.4,0.3,0.6s0.7,0.4,1.5,0.7
		c0.7,0.3,1.2,0.5,1.5,0.8s0.6,0.5,0.7,0.8S-119.3,407.3-119.3,407.7z"/>
	<path class="st1" d="M-111.9,410.3l-0.5-1.2h-0.1c-0.4,0.5-0.8,0.9-1.2,1.1s-1,0.3-1.7,0.3c-0.8,0-1.5-0.2-2-0.7s-0.7-1.2-0.7-2
		c0-0.9,0.3-1.6,1-2.1s1.6-0.7,2.9-0.7l1.5,0v-0.4c0-0.9-0.5-1.3-1.4-1.3c-0.7,0-1.5,0.2-2.5,0.6l-0.8-1.6c1-0.5,2.1-0.8,3.3-0.8
		c1.2,0,2.1,0.3,2.7,0.8s0.9,1.3,0.9,2.3v5.8H-111.9z M-112.6,406.3l-0.9,0c-0.7,0-1.2,0.1-1.5,0.4s-0.5,0.6-0.5,1
		c0,0.7,0.4,1,1.2,1c0.6,0,1-0.2,1.3-0.5s0.5-0.7,0.5-1.3V406.3z"/>
	<path class="st1" d="M-101.6,407.7c0,0.9-0.3,1.6-0.9,2s-1.6,0.7-2.8,0.7c-0.6,0-1.2,0-1.6-0.1s-0.9-0.2-1.3-0.4v-2
		c0.4,0.2,0.9,0.4,1.5,0.5s1,0.2,1.5,0.2c0.9,0,1.3-0.3,1.3-0.8c0-0.2-0.1-0.3-0.2-0.5s-0.3-0.3-0.6-0.4s-0.7-0.3-1.1-0.5
		c-0.7-0.3-1.2-0.5-1.5-0.8s-0.5-0.5-0.7-0.8s-0.2-0.7-0.2-1.1c0-0.8,0.3-1.4,0.9-1.8s1.5-0.6,2.6-0.6c1.1,0,2.1,0.2,3.1,0.7
		l-0.7,1.7c-0.4-0.2-0.8-0.3-1.2-0.5s-0.8-0.2-1.2-0.2c-0.7,0-1.1,0.2-1.1,0.6c0,0.2,0.1,0.4,0.3,0.6s0.7,0.4,1.5,0.7
		c0.7,0.3,1.2,0.5,1.5,0.8s0.6,0.5,0.7,0.8S-101.6,407.3-101.6,407.7z"/>
</g>
</svg>
