<!-- Generator: Adobe Illustrator 19.0.0, SVG Export Plug-In  -->
<svg version="1.1"
	 xmlns="http://www.w3.org/2000/svg" xmlns:xlink="http://www.w3.org/1999/xlink" xmlns:a="http://ns.adobe.com/AdobeSVGViewerExtensions/3.0/"
	 x="0px" y="0px" width="429.6px" height="524.9px" viewBox="0 0 429.6 524.9"
	 style="overflow:scroll;enable-background:new 0 0 429.6 524.9;" xml:space="preserve">
<style type="text/css">
	.st0{fill:#FFFFFF;}
</style>
<defs>
</defs>
<path class="st0" d="M429.6,297.8c0-15.6-10-29.4-24.9-34.2c-44.4-14.5-134-43.4-147.7-46.1c-4.2-0.8-8.4-1.2-12.4-1.2
	c-10.8,0-20.2,3-25.9,8h-0.1v-0.1c-0.1-0.6-20.7-200.2-20.7-200.6c-1.7-16-15-23.6-28.6-23.6c-15.5,0-31.5,9.8-31.4,27.9l-0.2,323.4
	c0,3.8-2.8,7-6.6,7.6h-0.2c-0.3,0.1-0.7,0.1-1,0.1h-0.2c-10.9-0.3-35.4-0.6-59.4-35.3c-3.2-4.6-6.1-8.7-8.7-12.6
	c-8.3-11.9-19.4-17-29.9-17c-18.4,0-35,15.9-31,39.7c5.8,34.6,43.7,115.4,118.4,191h268.5l27.1-45.8c9.7-16.2,14.8-34.8,14.8-53.8
	L429.6,297.8z M429.6,297.8"/>
</svg>
