<?xml version="1.0" encoding="utf-8"?>
<!-- Generator: Adobe Illustrator 19.0.0, SVG Export Plug-In . SVG Version: 6.00 Build 0)  -->
<svg version="1.1" id="Capa_1" xmlns="http://www.w3.org/2000/svg" xmlns:xlink="http://www.w3.org/1999/xlink" x="0px" y="0px"
	 viewBox="-236 378.7 137.9 37.3" style="enable-background:new -236 378.7 137.9 37.3;" xml:space="preserve">
<style type="text/css">
	.st0{fill:#78ACEA;}
	.st1{enable-background:new    ;}
	.st2{fill:#FFFFFF;}
</style>
<rect x="-236" y="378.7" class="st0" width="137.9" height="37.3"/>
<g class="st1">
	<path class="st2" d="M-198,403h-6.6v-11.4h6.6v2h-4.2v2.5h3.9v2h-3.9v2.9h4.2V403z"/>
	<path class="st2" d="M-190.8,403l-2.8-9h-0.1c0.1,1.8,0.1,3,0.1,3.6v5.3h-2.2v-11.4h3.3l2.7,8.7h0l2.9-8.7h3.3V403h-2.3v-5.4
		c0-0.3,0-0.5,0-0.9s0-1.2,0.1-2.7h-0.1l-2.9,8.9H-190.8z"/>
	<path class="st2" d="M-172.6,395.2c0,1.2-0.4,2.2-1.2,2.8c-0.8,0.7-1.9,1-3.3,1h-1v4.1h-2.4v-11.4h3.6c1.4,0,2.4,0.3,3.2,0.9
		C-173,393.1-172.6,394-172.6,395.2z M-178.1,397h0.8c0.7,0,1.3-0.1,1.7-0.4c0.4-0.3,0.6-0.7,0.6-1.3c0-0.6-0.2-1-0.5-1.3
		c-0.3-0.3-0.8-0.4-1.5-0.4h-1.1V397z"/>
	<path class="st2" d="M-163.9,403h-6.6v-11.4h6.6v2h-4.2v2.5h3.9v2h-3.9v2.9h4.2V403z"/>
	<path class="st2" d="M-154.1,403h-8.5v-1.6l5.5-7.9h-5.3v-2h8.2v1.6l-5.5,7.9h5.6V403z"/>
	<path class="st2" d="M-145.3,403l-0.8-2.7h-4.2l-0.8,2.7h-2.6l4-11.5h3l4,11.5H-145.3z M-146.7,398.3c-0.8-2.5-1.2-3.9-1.3-4.2
		s-0.2-0.6-0.2-0.8c-0.2,0.7-0.7,2.3-1.5,4.9H-146.7z"/>
	<path class="st2" d="M-138.8,398.7v4.4h-2.4v-11.4h3.3c1.6,0,2.7,0.3,3.4,0.8s1.1,1.4,1.1,2.6c0,0.7-0.2,1.3-0.6,1.8
		s-0.9,0.9-1.6,1.2c1.7,2.6,2.8,4.2,3.4,5h-2.7l-2.7-4.4H-138.8z M-138.8,396.7h0.8c0.8,0,1.3-0.1,1.7-0.4s0.5-0.7,0.5-1.2
		c0-0.5-0.2-0.9-0.6-1.2s-0.9-0.3-1.7-0.3h-0.7V396.7z"/>
</g>
</svg>
