<?xml version="1.0" encoding="utf-8"?>
<!-- Generator: Adobe Illustrator 19.0.0, SVG Export Plug-In . SVG Version: 6.00 Build 0)  -->
<svg version="1.1" id="Capa_1" xmlns="http://www.w3.org/2000/svg" xmlns:xlink="http://www.w3.org/1999/xlink" x="0px" y="0px"
	 viewBox="-246 337.9 118.1 118.1" style="enable-background:new -246 337.9 118.1 118.1;" xml:space="preserve">
<style type="text/css">
	.st0{fill:#78ACEA;}
	.st1{enable-background:new    ;}
	.st2{fill:#FFFFFF;}
</style>
<g>
	<circle class="st0" cx="-186.9" cy="397" r="59.1"/>
	<g class="st1">
		<path class="st2" d="M-168,383.8c0,3.8-1.1,7-3.4,9.6c-2.3,2.6-5.5,4.5-9.6,5.5v0.2c4.9,0.6,8.6,2.1,11.1,4.4
			c2.5,2.4,3.8,5.5,3.8,9.5c0,5.8-2.1,10.3-6.3,13.6c-4.2,3.2-10.2,4.9-18.1,4.9c-6.6,0-12.4-1.1-17.5-3.3v-10.9
			c2.3,1.2,4.9,2.2,7.7,2.9c2.8,0.7,5.6,1.1,8.4,1.1c4.2,0,7.3-0.7,9.3-2.2s3-3.7,3-6.9c0-2.8-1.2-4.9-3.5-6
			c-2.3-1.2-6-1.8-11.1-1.8h-4.6v-9.8h4.7c4.7,0,8.1-0.6,10.3-1.8c2.2-1.2,3.2-3.3,3.2-6.3c0-4.6-2.9-6.9-8.6-6.9c-2,0-4,0.3-6.1,1
			c-2.1,0.7-4.3,1.8-6.8,3.4l-5.9-8.8c5.5-4,12.1-6,19.7-6c6.3,0,11.2,1.3,14.8,3.8C-169.8,375.7-168,379.2-168,383.8z"/>
	</g>
</g>
</svg>
