<?xml version="1.0" encoding="utf-8"?>
<!-- Generator: Adobe Illustrator 19.0.0, SVG Export Plug-In . SVG Version: 6.00 Build 0)  -->
<svg version="1.1" id="Capa_1" xmlns="http://www.w3.org/2000/svg" xmlns:xlink="http://www.w3.org/1999/xlink" x="0px" y="0px"
	 viewBox="-246 325.3 118.1 143.7" style="enable-background:new -246 325.3 118.1 143.7;" xml:space="preserve">
<style type="text/css">
	.st0{enable-background:new    ;}
	.st1{fill:#FFFFFF;}
	.st2{fill:#78ACEA;}
</style>
<g class="st0">
	<path class="st1" d="M-194.3,331.2c0,1.2-0.4,2.2-1.2,2.8c-0.8,0.7-1.9,1-3.3,1h-1v4.1h-2.4v-11.4h3.6c1.4,0,2.4,0.3,3.2,0.9
		C-194.7,329.1-194.3,330-194.3,331.2z M-199.8,333h0.8c0.7,0,1.3-0.1,1.7-0.4c0.4-0.3,0.6-0.7,0.6-1.3c0-0.6-0.2-1-0.5-1.3
		c-0.3-0.3-0.8-0.4-1.5-0.4h-1.1V333z"/>
	<path class="st1" d="M-186.8,339l-0.5-1.2h-0.1c-0.4,0.5-0.8,0.9-1.2,1.1c-0.4,0.2-1,0.3-1.7,0.3c-0.8,0-1.5-0.2-2-0.7
		c-0.5-0.5-0.7-1.2-0.7-2c0-0.9,0.3-1.6,1-2.1s1.6-0.7,2.9-0.7l1.5,0v-0.4c0-0.9-0.5-1.3-1.4-1.3c-0.7,0-1.5,0.2-2.5,0.6l-0.8-1.6
		c1-0.5,2.1-0.8,3.3-0.8c1.2,0,2.1,0.3,2.7,0.8c0.6,0.5,0.9,1.3,0.9,2.3v5.8H-186.8z M-187.5,335l-0.9,0c-0.7,0-1.2,0.1-1.5,0.4
		c-0.3,0.2-0.5,0.6-0.5,1c0,0.7,0.4,1,1.2,1c0.6,0,1-0.2,1.3-0.5c0.3-0.3,0.5-0.7,0.5-1.3V335z"/>
	<path class="st1" d="M-176.6,336.4c0,0.9-0.3,1.6-0.9,2c-0.6,0.5-1.6,0.7-2.8,0.7c-0.6,0-1.2,0-1.6-0.1c-0.4-0.1-0.9-0.2-1.3-0.4
		v-2c0.4,0.2,0.9,0.4,1.5,0.5s1,0.2,1.5,0.2c0.9,0,1.3-0.3,1.3-0.8c0-0.2-0.1-0.3-0.2-0.5c-0.1-0.1-0.3-0.3-0.6-0.4
		s-0.7-0.3-1.1-0.5c-0.7-0.3-1.2-0.5-1.5-0.8c-0.3-0.2-0.5-0.5-0.7-0.8c-0.1-0.3-0.2-0.7-0.2-1.1c0-0.8,0.3-1.4,0.9-1.8
		s1.5-0.6,2.6-0.6c1.1,0,2.1,0.2,3.1,0.7l-0.7,1.7c-0.4-0.2-0.8-0.3-1.2-0.5c-0.4-0.1-0.8-0.2-1.2-0.2c-0.7,0-1.1,0.2-1.1,0.6
		c0,0.2,0.1,0.4,0.3,0.6s0.7,0.4,1.5,0.7c0.7,0.3,1.2,0.5,1.5,0.8c0.3,0.2,0.6,0.5,0.7,0.8C-176.7,335.6-176.6,336-176.6,336.4z"/>
	<path class="st1" d="M-166.8,334.6c0,1.4-0.4,2.5-1.1,3.3s-1.8,1.2-3.1,1.2c-0.8,0-1.6-0.2-2.2-0.6s-1.1-0.9-1.5-1.6
		s-0.5-1.5-0.5-2.4c0-1.4,0.4-2.5,1.1-3.3c0.7-0.8,1.8-1.2,3.1-1.2c0.8,0,1.6,0.2,2.2,0.5s1.1,0.9,1.5,1.6S-166.8,333.7-166.8,334.6
		z M-172.9,334.6c0,0.9,0.1,1.5,0.4,2c0.3,0.4,0.7,0.7,1.4,0.7c0.6,0,1.1-0.2,1.4-0.7c0.3-0.4,0.4-1.1,0.4-2c0-0.9-0.1-1.5-0.4-1.9
		s-0.7-0.6-1.4-0.6c-0.6,0-1.1,0.2-1.4,0.6S-172.9,333.8-172.9,334.6z"/>
</g>
<g>
	<circle class="st2" cx="-186.9" cy="409.9" r="59.1"/>
	<g class="st0">
		<path class="st1" d="M-176.3,443.7h-12.8v-35l0.1-5.7l0.2-6.3c-2.1,2.1-3.6,3.5-4.4,4.2l-6.9,5.6l-6.2-7.7l19.5-15.5h10.5V443.7z"
			/>
	</g>
</g>
</svg>
