<!-- Generator: Adobe Illustrator 19.0.0, SVG Export Plug-In  -->
<svg version="1.1"
	 xmlns="http://www.w3.org/2000/svg" xmlns:xlink="http://www.w3.org/1999/xlink" xmlns:a="http://ns.adobe.com/AdobeSVGViewerExtensions/3.0/"
	 x="0px" y="0px" width="96.2px" height="121px" viewBox="0 0 96.2 121"
	 style="overflow:scroll;enable-background:new 0 0 96.2 121;" xml:space="preserve">
<style type="text/css">
	.st0{fill:#EAEAEA;}
	.st1{fill:#EDCA37;}
	.st2{fill:#FFFFFF;}
</style>
<defs>
</defs>
<g>
	<path class="st0" d="M60.2,0H8.9C4.1,0,0,3.5,0,8.4v104c0,4.9,4.1,8.6,8.9,8.6h51.2c1.9,0,3.6-0.5,5-1.5c-2.2-0.9-4.6-2-7-3.8
		c-4.8-2.2-5.8-3.8-6.2-4.6c-1.5-2.7-2.3-3.6-2.8-3.9c-0.2-0.2-0.5-0.5-0.8-0.9c-1.9-1.6-2.7-4.3-2.6-6.4c0-0.7,0.2-0.9,0.4-1.9H7
		V14h55v63c0,0,0.2,0,0.2,0.1c0.9,1.9,2.3,4.5,3.3,6.4c0.4-0.3,1-0.6,1.5-0.8c0.5-0.2,1-0.4,2-0.4V8.4C69,3.5,65.1,0,60.2,0z
		 M24,105h21v7H24V105z M46,9H23V6h23V9z M54.3,9.6c-1.2,0-2.3-1-2.3-2.2c0-1.2,1-2.3,2.3-2.3c1.3,0,2.3,1,2.3,2.3
		C56.6,8.6,55.6,9.6,54.3,9.6z"/>
	<rect x="15" y="24.2" class="st1" width="15.4" height="16.8"/>
	<path class="st2" d="M31.4,22H14c-0.5,0-1,0.7-1,1.2V42c0,0.5,0.5,1,1,1h17v0c1,0,1-0.4,1-1V23.2C32,22.7,32,22,31.4,22z M31,42H14
		V23h17V42z"/>
	<path class="st0" d="M58.1,51.8c0,1.5-1.2,2.7-2.7,2.7H14.3c-1.5,0-2.7-1.2-2.7-2.7c0-1.5,1.2-2.7,2.7-2.7h41.1
		C56.9,49.1,58.1,50.3,58.1,51.8L58.1,51.8z"/>
	<path class="st0" d="M50.4,65.8H14c-1.5,0-2.7-1.2-2.7-2.7c0-1.5,1.2-2.7,2.7-2.7h41.1c1.5,0,2.7,1.2,2.7,2.7
		c0,1.5-1.2,2.7-2.7,2.7h-0.6c-1.2-0.5-2.6-0.6-3.9-0.1C50.5,65.7,50.4,65.7,50.4,65.8L50.4,65.8z"/>
	<path class="st0" d="M42.7,71.9c0.1,0.7,0.2,1.4,0.5,2.1c0.4,1.1,0.8,2.2,1.2,3.3H14c-1.5,0-2.7-1.2-2.7-2.7c0-1.5,1.2-2.7,2.7-2.7
		H42.7z"/>
	<path class="st2" d="M77.9,120.9c0,0,0.8-2-2.8-2.9c0,0-6.6,0.2-13.7-4.1c0,0-4.9-1.6-5.4-2.9c-3.4-4.8-4.2-4.3-4.3-5.1
		c-3.3-1.5-4.2-9,2.2-5.6c0.1,0,4.4,3.3,4.4,3.2c0,0,3.4,2.9,5.3,3c2.4-1.3-4.6-11.7-4.6-12.7c0,0-3.8-6.4-10.1-19.3
		c-3.1-7.7,2.1-6.3,4.2-3.8c0.5-0.2,10.5,17.1,11.2,17c0,0,2.8-6,7.8-2c0,0,3.3-5.1,7.8-0.8c0,0,6.5-2.7,8.9,3.3
		c0,0,6.8,10.1,6.7,19.6l0.7,3.7L77.9,120.9z"/>
</g>
</svg>
