<?xml version="1.0" encoding="utf-8"?>
<!-- Generator: Adobe Illustrator 19.0.0, SVG Export Plug-In . SVG Version: 6.00 Build 0)  -->
<svg version="1.1" id="Capa_1" xmlns="http://www.w3.org/2000/svg" xmlns:xlink="http://www.w3.org/1999/xlink" x="0px" y="0px"
	 viewBox="-242 369.6 126.8 54.4" style="enable-background:new -242 369.6 126.8 54.4;" xml:space="preserve">
<style type="text/css">
	.st0{enable-background:new    ;}
	.st1{fill:#FFFFFF;}
</style>
<g class="st0">
	<path class="st1" d="M-231.1,377.5c0,1.9-0.5,3.3-1.6,4.3s-2.6,1.5-4.6,1.5h-3.2v-11.4h3.6c1.9,0,3.3,0.5,4.3,1.5
		S-231.1,375.7-231.1,377.5z M-233.6,377.6c0-2.5-1.1-3.7-3.3-3.7h-1.3v7.4h1C-234.8,381.3-233.6,380.1-233.6,377.6z"/>
	<path class="st1" d="M-229,372.3c0-0.8,0.4-1.2,1.3-1.2c0.9,0,1.3,0.4,1.3,1.2c0,0.4-0.1,0.7-0.3,0.9c-0.2,0.2-0.5,0.3-1,0.3
		C-228.6,373.5-229,373.1-229,372.3z M-226.5,383.3h-2.4v-8.7h2.4V383.3z"/>
	<path class="st1" d="M-221.6,383.3h-2.4v-12.2h2.4V383.3z"/>
	<path class="st1" d="M-219.2,372.3c0-0.8,0.4-1.2,1.3-1.2c0.9,0,1.3,0.4,1.3,1.2c0,0.4-0.1,0.7-0.3,0.9c-0.2,0.2-0.5,0.3-1,0.3
		C-218.8,373.5-219.2,373.1-219.2,372.3z M-216.8,383.3h-2.4v-8.7h2.4V383.3z"/>
	<path class="st1" d="M-206.7,374.6v1.2l-1.4,0.4c0.3,0.4,0.4,0.8,0.4,1.3c0,0.9-0.3,1.7-1,2.2c-0.7,0.5-1.6,0.8-2.7,0.8l-0.4,0
		l-0.4,0c-0.2,0.2-0.4,0.4-0.4,0.6c0,0.3,0.4,0.5,1.3,0.5h1.5c1,0,1.7,0.2,2.2,0.6c0.5,0.4,0.8,1,0.8,1.8c0,1-0.4,1.8-1.3,2.4
		s-2.1,0.8-3.7,0.8c-1.2,0-2.1-0.2-2.8-0.6c-0.6-0.4-1-1-1-1.8c0-0.5,0.2-1,0.5-1.3s0.8-0.6,1.4-0.8c-0.2-0.1-0.5-0.3-0.6-0.5
		c-0.2-0.2-0.3-0.5-0.3-0.8c0-0.3,0.1-0.6,0.3-0.8c0.2-0.2,0.5-0.4,0.8-0.7c-0.5-0.2-0.8-0.5-1.1-1c-0.3-0.4-0.4-1-0.4-1.5
		c0-1,0.3-1.7,0.9-2.2c0.6-0.5,1.5-0.8,2.7-0.8c0.2,0,0.5,0,0.9,0.1s0.6,0.1,0.6,0.1H-206.7z M-213.4,384.5c0,0.3,0.2,0.6,0.5,0.8
		c0.3,0.2,0.8,0.3,1.3,0.3c0.9,0,1.5-0.1,2-0.4s0.7-0.6,0.7-1c0-0.3-0.1-0.6-0.4-0.7c-0.3-0.1-0.7-0.2-1.3-0.2h-1.2
		c-0.4,0-0.8,0.1-1.1,0.3C-213.3,383.9-213.4,384.2-213.4,384.5z M-212.5,377.4c0,0.5,0.1,0.8,0.3,1.1c0.2,0.3,0.5,0.4,1,0.4
		c0.4,0,0.8-0.1,1-0.4c0.2-0.3,0.3-0.7,0.3-1.1c0-1.1-0.4-1.6-1.3-1.6C-212.1,375.9-212.5,376.4-212.5,377.4z"/>
	<path class="st1" d="M-201.3,383.5c-1.4,0-2.5-0.4-3.3-1.2c-0.8-0.8-1.2-1.9-1.2-3.3c0-1.5,0.4-2.6,1.1-3.4c0.7-0.8,1.7-1.2,3-1.2
		c1.2,0,2.2,0.4,2.9,1.1s1,1.7,1,2.9v1.2h-5.6c0,0.7,0.2,1.2,0.6,1.6s0.9,0.6,1.6,0.6c0.5,0,1-0.1,1.5-0.2s1-0.3,1.5-0.5v1.8
		c-0.4,0.2-0.9,0.4-1.3,0.5C-200,383.4-200.6,383.5-201.3,383.5z M-201.6,376.1c-0.5,0-0.9,0.2-1.2,0.5c-0.3,0.3-0.5,0.8-0.5,1.4
		h3.3c0-0.6-0.2-1-0.5-1.4S-201.1,376.1-201.6,376.1z"/>
	<path class="st1" d="M-187.7,383.3h-2.4v-5.1c0-0.6-0.1-1.1-0.3-1.4c-0.2-0.3-0.6-0.5-1.1-0.5c-0.7,0-1.1,0.2-1.4,0.7
		s-0.4,1.2-0.4,2.2v4.1h-2.4v-8.7h1.8l0.3,1.1h0.1c0.3-0.4,0.6-0.7,1.1-1c0.5-0.2,1-0.3,1.6-0.3c1,0,1.8,0.3,2.3,0.8
		c0.5,0.5,0.8,1.3,0.8,2.4V383.3z"/>
	<path class="st1" d="M-181.7,383.5c-2.7,0-4.1-1.5-4.1-4.5c0-1.5,0.4-2.6,1.1-3.4c0.7-0.8,1.8-1.2,3.2-1.2c1,0,1.9,0.2,2.7,0.6
		l-0.7,1.8c-0.4-0.2-0.7-0.3-1-0.4c-0.3-0.1-0.6-0.1-1-0.1c-1.2,0-1.9,0.9-1.9,2.6c0,1.7,0.6,2.6,1.9,2.6c0.5,0,0.9-0.1,1.3-0.2
		s0.8-0.3,1.2-0.6v2c-0.4,0.2-0.8,0.4-1.2,0.5C-180.6,383.4-181.1,383.5-181.7,383.5z"/>
	<path class="st1" d="M-177.1,372.3c0-0.8,0.4-1.2,1.3-1.2s1.3,0.4,1.3,1.2c0,0.4-0.1,0.7-0.3,0.9s-0.5,0.3-1,0.3
		C-176.7,373.5-177.1,373.1-177.1,372.3z M-174.6,383.3h-2.4v-8.7h2.4V383.3z"/>
	<path class="st1" d="M-166.6,383.3l-0.5-1.2h-0.1c-0.4,0.5-0.8,0.9-1.2,1.1s-1,0.3-1.7,0.3c-0.8,0-1.5-0.2-2-0.7s-0.7-1.2-0.7-2
		c0-0.9,0.3-1.6,1-2.1s1.6-0.7,2.9-0.7l1.5,0v-0.4c0-0.9-0.5-1.3-1.4-1.3c-0.7,0-1.5,0.2-2.5,0.6l-0.8-1.6c1-0.5,2.1-0.8,3.3-0.8
		c1.2,0,2.1,0.3,2.7,0.8s0.9,1.3,0.9,2.3v5.8H-166.6z M-167.3,379.3l-0.9,0c-0.7,0-1.2,0.1-1.5,0.4s-0.5,0.6-0.5,1
		c0,0.7,0.4,1,1.2,1c0.6,0,1-0.2,1.3-0.5s0.5-0.7,0.5-1.3V379.3z"/>
	<path class="st1" d="M-153.7,383.3h-2.4v-9.4h-3.1v-2h8.6v2h-3.1V383.3z"/>
	<path class="st1" d="M-141.1,378.9c0,1.4-0.4,2.5-1.1,3.3s-1.8,1.2-3.1,1.2c-0.8,0-1.6-0.2-2.2-0.6s-1.1-0.9-1.5-1.6
		s-0.5-1.5-0.5-2.4c0-1.4,0.4-2.5,1.1-3.3s1.8-1.2,3.1-1.2c0.8,0,1.6,0.2,2.2,0.5s1.1,0.9,1.5,1.6S-141.1,378-141.1,378.9z
		 M-147.2,378.9c0,0.9,0.1,1.5,0.4,2s0.7,0.7,1.4,0.7c0.6,0,1.1-0.2,1.4-0.7s0.4-1.1,0.4-2c0-0.9-0.1-1.5-0.4-1.9s-0.7-0.6-1.4-0.6
		c-0.6,0-1.1,0.2-1.4,0.6S-147.2,378.1-147.2,378.9z"/>
	<path class="st1" d="M-136.4,383.5c-1,0-1.8-0.4-2.4-1.2s-0.9-1.9-0.9-3.3c0-1.4,0.3-2.5,0.9-3.3s1.4-1.2,2.5-1.2
		c1.1,0,1.9,0.4,2.5,1.3h0.1c-0.1-0.7-0.2-1.2-0.2-1.7v-2.8h2.4v12.2h-1.8l-0.5-1.1h-0.1C-134.4,383-135.3,383.5-136.4,383.5z
		 M-135.5,381.6c0.6,0,1.1-0.2,1.3-0.5s0.4-1,0.5-1.8V379c0-0.9-0.1-1.6-0.4-2s-0.8-0.6-1.4-0.6c-0.5,0-0.9,0.2-1.2,0.7
		s-0.4,1.1-0.4,2s0.1,1.5,0.4,1.9S-136.1,381.6-135.5,381.6z"/>
	<path class="st1" d="M-121.1,378.9c0,1.4-0.4,2.5-1.1,3.3s-1.8,1.2-3.1,1.2c-0.8,0-1.6-0.2-2.2-0.6s-1.1-0.9-1.5-1.6
		s-0.5-1.5-0.5-2.4c0-1.4,0.4-2.5,1.1-3.3s1.8-1.2,3.1-1.2c0.8,0,1.6,0.2,2.2,0.5s1.1,0.9,1.5,1.6S-121.1,378-121.1,378.9z
		 M-127.1,378.9c0,0.9,0.1,1.5,0.4,2s0.7,0.7,1.4,0.7c0.6,0,1.1-0.2,1.4-0.7s0.4-1.1,0.4-2c0-0.9-0.1-1.5-0.4-1.9s-0.7-0.6-1.4-0.6
		c-0.6,0-1.1,0.2-1.4,0.6S-127.1,378.1-127.1,378.9z"/>
	<path class="st1" d="M-113,380.7c0,0.9-0.3,1.6-0.9,2s-1.6,0.7-2.8,0.7c-0.6,0-1.2,0-1.6-0.1s-0.9-0.2-1.3-0.4v-2
		c0.4,0.2,0.9,0.4,1.5,0.5s1,0.2,1.5,0.2c0.9,0,1.3-0.3,1.3-0.8c0-0.2-0.1-0.3-0.2-0.5s-0.3-0.3-0.6-0.4s-0.7-0.3-1.1-0.5
		c-0.7-0.3-1.2-0.5-1.5-0.8s-0.5-0.5-0.7-0.8s-0.2-0.7-0.2-1.1c0-0.8,0.3-1.4,0.9-1.8s1.5-0.6,2.6-0.6c1.1,0,2.1,0.2,3.1,0.7
		l-0.7,1.7c-0.4-0.2-0.8-0.3-1.2-0.5s-0.8-0.2-1.2-0.2c-0.7,0-1.1,0.2-1.1,0.6c0,0.2,0.1,0.4,0.3,0.6s0.7,0.4,1.5,0.7
		c0.7,0.3,1.2,0.5,1.5,0.8s0.6,0.5,0.7,0.8S-113,380.3-113,380.7z"/>
</g>
<g class="st0">
	<path class="st1" d="M-211.2,401.3h-2.4v-12.2h2.4V401.3z"/>
	<path class="st1" d="M-200.7,396.9c0,1.4-0.4,2.5-1.1,3.3s-1.8,1.2-3.1,1.2c-0.8,0-1.6-0.2-2.2-0.6s-1.1-0.9-1.5-1.6
		s-0.5-1.5-0.5-2.4c0-1.4,0.4-2.5,1.1-3.3c0.7-0.8,1.8-1.2,3.1-1.2c0.8,0,1.6,0.2,2.2,0.5s1.1,0.9,1.5,1.6S-200.7,396-200.7,396.9z
		 M-206.8,396.9c0,0.9,0.1,1.5,0.4,2c0.3,0.4,0.7,0.7,1.4,0.7c0.6,0,1.1-0.2,1.4-0.7c0.3-0.4,0.4-1.1,0.4-2c0-0.9-0.1-1.5-0.4-1.9
		s-0.7-0.6-1.4-0.6c-0.6,0-1.1,0.2-1.4,0.6S-206.8,396.1-206.8,396.9z"/>
	<path class="st1" d="M-192.7,398.7c0,0.9-0.3,1.6-0.9,2c-0.6,0.5-1.6,0.7-2.8,0.7c-0.6,0-1.2,0-1.6-0.1c-0.4-0.1-0.9-0.2-1.3-0.4
		v-2c0.4,0.2,0.9,0.4,1.5,0.5s1,0.2,1.5,0.2c0.9,0,1.3-0.3,1.3-0.8c0-0.2-0.1-0.3-0.2-0.5c-0.1-0.1-0.3-0.3-0.6-0.4
		s-0.7-0.3-1.1-0.5c-0.7-0.3-1.2-0.5-1.5-0.8c-0.3-0.2-0.5-0.5-0.7-0.8c-0.1-0.3-0.2-0.7-0.2-1.1c0-0.8,0.3-1.4,0.9-1.8
		s1.5-0.6,2.6-0.6c1.1,0,2.1,0.2,3.1,0.7l-0.7,1.7c-0.4-0.2-0.8-0.3-1.2-0.5c-0.4-0.1-0.8-0.2-1.2-0.2c-0.7,0-1.1,0.2-1.1,0.6
		c0,0.2,0.1,0.4,0.3,0.6s0.7,0.4,1.5,0.7c0.7,0.3,1.2,0.5,1.5,0.8c0.3,0.2,0.6,0.5,0.7,0.8C-192.7,397.9-192.7,398.3-192.7,398.7z"
		/>
	<path class="st1" d="M-177,395.5c0,1.9-0.5,3.3-1.6,4.3s-2.6,1.5-4.6,1.5h-3.2v-11.4h3.6c1.9,0,3.3,0.5,4.3,1.5
		S-177,393.7-177,395.5z M-179.5,395.6c0-2.5-1.1-3.7-3.3-3.7h-1.3v7.4h1C-180.7,399.3-179.5,398.1-179.5,395.6z"/>
	<path class="st1" d="M-169.3,401.3l-0.5-1.2h-0.1c-0.4,0.5-0.8,0.9-1.2,1.1c-0.4,0.2-1,0.3-1.7,0.3c-0.8,0-1.5-0.2-2-0.7
		c-0.5-0.5-0.7-1.2-0.7-2c0-0.9,0.3-1.6,1-2.1s1.6-0.7,2.9-0.7l1.5,0v-0.4c0-0.9-0.5-1.3-1.4-1.3c-0.7,0-1.5,0.2-2.5,0.6l-0.8-1.6
		c1-0.5,2.1-0.8,3.3-0.8c1.2,0,2.1,0.3,2.7,0.8s0.9,1.3,0.9,2.3v5.8H-169.3z M-170,397.3l-0.9,0c-0.7,0-1.2,0.1-1.5,0.4
		c-0.3,0.2-0.5,0.6-0.5,1c0,0.7,0.4,1,1.2,1c0.6,0,1-0.2,1.3-0.5c0.3-0.3,0.5-0.7,0.5-1.3V397.3z"/>
	<path class="st1" d="M-161.5,399.6c0.4,0,0.9-0.1,1.5-0.3v1.8c-0.6,0.3-1.3,0.4-2.2,0.4c-1,0-1.6-0.2-2.1-0.7
		c-0.4-0.5-0.7-1.2-0.7-2.2v-4.2h-1.1v-1l1.3-0.8l0.7-1.8h1.5v1.9h2.4v1.8h-2.4v4.2c0,0.3,0.1,0.6,0.3,0.8
		C-162,399.5-161.8,399.6-161.5,399.6z"/>
	<path class="st1" d="M-150.3,396.9c0,1.4-0.4,2.5-1.1,3.3s-1.8,1.2-3.1,1.2c-0.8,0-1.6-0.2-2.2-0.6s-1.1-0.9-1.5-1.6
		s-0.5-1.5-0.5-2.4c0-1.4,0.4-2.5,1.1-3.3c0.7-0.8,1.8-1.2,3.1-1.2c0.8,0,1.6,0.2,2.2,0.5s1.1,0.9,1.5,1.6S-150.3,396-150.3,396.9z
		 M-156.3,396.9c0,0.9,0.1,1.5,0.4,2c0.3,0.4,0.7,0.7,1.4,0.7c0.6,0,1.1-0.2,1.4-0.7c0.3-0.4,0.4-1.1,0.4-2c0-0.9-0.1-1.5-0.4-1.9
		s-0.7-0.6-1.4-0.6c-0.6,0-1.1,0.2-1.4,0.6S-156.3,396.1-156.3,396.9z"/>
	<path class="st1" d="M-142.2,398.7c0,0.9-0.3,1.6-0.9,2c-0.6,0.5-1.6,0.7-2.8,0.7c-0.6,0-1.2,0-1.6-0.1c-0.4-0.1-0.9-0.2-1.3-0.4
		v-2c0.4,0.2,0.9,0.4,1.5,0.5s1,0.2,1.5,0.2c0.9,0,1.3-0.3,1.3-0.8c0-0.2-0.1-0.3-0.2-0.5c-0.1-0.1-0.3-0.3-0.6-0.4
		s-0.7-0.3-1.1-0.5c-0.7-0.3-1.2-0.5-1.5-0.8c-0.3-0.2-0.5-0.5-0.7-0.8c-0.1-0.3-0.2-0.7-0.2-1.1c0-0.8,0.3-1.4,0.9-1.8
		s1.5-0.6,2.6-0.6c1.1,0,2.1,0.2,3.1,0.7l-0.7,1.7c-0.4-0.2-0.8-0.3-1.2-0.5c-0.4-0.1-0.8-0.2-1.2-0.2c-0.7,0-1.1,0.2-1.1,0.6
		c0,0.2,0.1,0.4,0.3,0.6s0.7,0.4,1.5,0.7c0.7,0.3,1.2,0.5,1.5,0.8c0.3,0.2,0.6,0.5,0.7,0.8C-142.3,397.9-142.2,398.3-142.2,398.7z"
		/>
	<path class="st1" d="M-133.4,401.5c-1,0-1.8-0.4-2.4-1.2s-0.9-1.9-0.9-3.3c0-1.4,0.3-2.5,0.9-3.3c0.6-0.8,1.4-1.2,2.5-1.2
		c1.1,0,1.9,0.4,2.5,1.3h0.1c-0.1-0.7-0.2-1.2-0.2-1.7v-2.8h2.4v12.2h-1.8l-0.5-1.1h-0.1C-131.5,401-132.3,401.5-133.4,401.5z
		 M-132.6,399.6c0.6,0,1.1-0.2,1.3-0.5c0.3-0.4,0.4-1,0.5-1.8V397c0-0.9-0.1-1.6-0.4-2s-0.8-0.6-1.4-0.6c-0.5,0-0.9,0.2-1.2,0.7
		c-0.3,0.5-0.4,1.1-0.4,2c0,0.9,0.1,1.5,0.4,1.9S-133.1,399.6-132.6,399.6z"/>
	<path class="st1" d="M-122.1,401.5c-1.4,0-2.5-0.4-3.3-1.2c-0.8-0.8-1.2-1.9-1.2-3.3c0-1.5,0.4-2.6,1.1-3.4c0.7-0.8,1.7-1.2,3-1.2
		c1.2,0,2.2,0.4,2.9,1.1s1,1.7,1,2.9v1.2h-5.6c0,0.7,0.2,1.2,0.6,1.6s0.9,0.6,1.6,0.6c0.5,0,1-0.1,1.5-0.2s1-0.3,1.5-0.5v1.8
		c-0.4,0.2-0.9,0.4-1.3,0.5C-120.8,401.4-121.4,401.5-122.1,401.5z M-122.4,394.1c-0.5,0-0.9,0.2-1.2,0.5c-0.3,0.3-0.5,0.8-0.5,1.4
		h3.3c0-0.6-0.2-1-0.5-1.4S-121.9,394.1-122.4,394.1z"/>
	<path class="st1" d="M-114.2,401.3h-2.4v-12.2h2.4V401.3z"/>
</g>
<g class="st0">
	<path class="st1" d="M-198.5,419.3h-2.4v-11.4h6.5v2h-4.2v2.9h3.9v2h-3.9V419.3z"/>
	<path class="st1" d="M-184.3,414.9c0,1.4-0.4,2.5-1.1,3.3s-1.8,1.2-3.1,1.2c-0.8,0-1.6-0.2-2.2-0.6s-1.1-0.9-1.5-1.6
		s-0.5-1.5-0.5-2.4c0-1.4,0.4-2.5,1.1-3.3c0.7-0.8,1.8-1.2,3.1-1.2c0.8,0,1.6,0.2,2.2,0.5s1.1,0.9,1.5,1.6S-184.3,414-184.3,414.9z
		 M-190.4,414.9c0,0.9,0.1,1.5,0.4,2c0.3,0.4,0.7,0.7,1.4,0.7c0.6,0,1.1-0.2,1.4-0.7c0.3-0.4,0.4-1.1,0.4-2c0-0.9-0.1-1.5-0.4-1.9
		s-0.7-0.6-1.4-0.6c-0.6,0-1.1,0.2-1.4,0.6S-190.4,414.1-190.4,414.9z"/>
	<path class="st1" d="M-177.5,410.4c0.3,0,0.6,0,0.8,0.1l-0.2,2.2c-0.2-0.1-0.4-0.1-0.7-0.1c-0.8,0-1.4,0.2-1.8,0.6
		c-0.4,0.4-0.6,0.9-0.6,1.6v4.4h-2.4v-8.7h1.8l0.4,1.5h0.1c0.3-0.5,0.6-0.9,1.1-1.2S-178,410.4-177.5,410.4z"/>
	<path class="st1" d="M-167.3,419.3h-2.4v-5.1c0-0.6-0.1-1.1-0.3-1.4s-0.5-0.5-1-0.5c-0.6,0-1.1,0.2-1.3,0.7
		c-0.3,0.4-0.4,1.2-0.4,2.2v4.1h-2.4v-8.7h1.8l0.3,1.1h0.1c0.2-0.4,0.6-0.7,1-0.9c0.4-0.2,1-0.3,1.5-0.3c1.3,0,2.2,0.4,2.7,1.3h0.2
		c0.2-0.4,0.6-0.7,1-0.9c0.5-0.2,1-0.3,1.5-0.3c1,0,1.7,0.3,2.2,0.8s0.8,1.3,0.8,2.4v5.7h-2.4v-5.1c0-0.6-0.1-1.1-0.3-1.4
		s-0.5-0.5-1-0.5c-0.6,0-1,0.2-1.3,0.6s-0.4,1.1-0.4,2V419.3z"/>
	<path class="st1" d="M-153.2,419.3l-0.3-1.1h-0.1c-0.3,0.4-0.6,0.7-1.1,0.9s-1,0.3-1.6,0.3c-1,0-1.8-0.3-2.3-0.8
		c-0.5-0.5-0.8-1.3-0.8-2.4v-5.7h2.4v5.1c0,0.6,0.1,1.1,0.3,1.4c0.2,0.3,0.6,0.5,1.1,0.5c0.7,0,1.1-0.2,1.4-0.7s0.4-1.2,0.4-2.2
		v-4.1h2.4v8.7H-153.2z"/>
	<path class="st1" d="M-146.5,419.3h-2.4v-12.2h2.4V419.3z"/>
	<path class="st1" d="M-138.4,419.3l-0.5-1.2h-0.1c-0.4,0.5-0.8,0.9-1.2,1.1c-0.4,0.2-1,0.3-1.7,0.3c-0.8,0-1.5-0.2-2-0.7
		c-0.5-0.5-0.7-1.2-0.7-2c0-0.9,0.3-1.6,1-2.1s1.6-0.7,2.9-0.7l1.5,0v-0.4c0-0.9-0.5-1.3-1.4-1.3c-0.7,0-1.5,0.2-2.5,0.6l-0.8-1.6
		c1-0.5,2.1-0.8,3.3-0.8c1.2,0,2.1,0.3,2.7,0.8s0.9,1.3,0.9,2.3v5.8H-138.4z M-139.1,415.3l-0.9,0c-0.7,0-1.2,0.1-1.5,0.4
		c-0.3,0.2-0.5,0.6-0.5,1c0,0.7,0.4,1,1.2,1c0.6,0,1-0.2,1.3-0.5c0.3-0.3,0.5-0.7,0.5-1.3V415.3z"/>
	<path class="st1" d="M-129.4,410.4c0.3,0,0.6,0,0.8,0.1l-0.2,2.2c-0.2-0.1-0.4-0.1-0.7-0.1c-0.8,0-1.4,0.2-1.8,0.6
		c-0.4,0.4-0.6,0.9-0.6,1.6v4.4h-2.4v-8.7h1.8l0.4,1.5h0.1c0.3-0.5,0.6-0.9,1.1-1.2S-130,410.4-129.4,410.4z"/>
	<path class="st1" d="M-127.2,408.3c0-0.8,0.4-1.2,1.3-1.2c0.9,0,1.3,0.4,1.3,1.2c0,0.4-0.1,0.7-0.3,0.9c-0.2,0.2-0.5,0.3-1,0.3
		C-126.7,409.5-127.2,409.1-127.2,408.3z M-124.7,419.3h-2.4v-8.7h2.4V419.3z"/>
	<path class="st1" d="M-114.2,414.9c0,1.4-0.4,2.5-1.1,3.3s-1.8,1.2-3.1,1.2c-0.8,0-1.6-0.2-2.2-0.6s-1.1-0.9-1.5-1.6
		s-0.5-1.5-0.5-2.4c0-1.4,0.4-2.5,1.1-3.3c0.7-0.8,1.8-1.2,3.1-1.2c0.8,0,1.6,0.2,2.2,0.5s1.1,0.9,1.5,1.6S-114.2,414-114.2,414.9z
		 M-120.3,414.9c0,0.9,0.1,1.5,0.4,2c0.3,0.4,0.7,0.7,1.4,0.7c0.6,0,1.1-0.2,1.4-0.7c0.3-0.4,0.4-1.1,0.4-2c0-0.9-0.1-1.5-0.4-1.9
		s-0.7-0.6-1.4-0.6c-0.6,0-1.1,0.2-1.4,0.6S-120.3,414.1-120.3,414.9z"/>
</g>
</svg>
