<!-- Generator: Adobe Illustrator 19.0.0, SVG Export Plug-In  -->
<svg version="1.1"
	 xmlns="http://www.w3.org/2000/svg" xmlns:xlink="http://www.w3.org/1999/xlink" xmlns:a="http://ns.adobe.com/AdobeSVGViewerExtensions/3.0/"
	 x="0px" y="0px" width="137.9px" height="37.3px" viewBox="0 0 137.9 37.3"
	 style="overflow:scroll;enable-background:new 0 0 137.9 37.3;" xml:space="preserve">
<style type="text/css">
	.st0{fill:#78ACEA;}
	.st1{fill:#FFFFFF;}
</style>
<defs>
</defs>
<rect class="st0" width="137.9" height="37.3"/>
<g>
	<path class="st1" d="M38,24.3h-6.6V12.9H38v2h-4.2v2.5h3.9v2h-3.9v2.9H38V24.3z"/>
	<path class="st1" d="M45.1,24.3l-2.8-9h-0.1c0.1,1.8,0.1,3,0.1,3.6v5.3h-2.2V12.9h3.3l2.7,8.7h0l2.9-8.7h3.3v11.4h-2.3v-5.4
		c0-0.3,0-0.5,0-0.9s0-1.2,0.1-2.7h-0.1l-2.9,8.9H45.1z"/>
	<path class="st1" d="M63,16.5c0,1.2-0.4,2.2-1.2,2.8s-1.9,1-3.3,1h-1v4.1h-2.4V12.9h3.6c1.4,0,2.4,0.3,3.2,0.9S63,15.3,63,16.5z
		 M57.6,18.3h0.8c0.7,0,1.3-0.1,1.7-0.4s0.6-0.7,0.6-1.3c0-0.6-0.2-1-0.5-1.3s-0.8-0.4-1.5-0.4h-1.1V18.3z"/>
	<path class="st1" d="M71.6,24.3H65V12.9h6.6v2h-4.2v2.5h3.9v2h-3.9v2.9h4.2V24.3z"/>
	<path class="st1" d="M81.2,24.3h-8.5v-1.6l5.5-7.9h-5.3v-2h8.2v1.6l-5.5,7.9h5.6V24.3z"/>
	<path class="st1" d="M89.9,24.3L89,21.6h-4.2L84,24.3h-2.6l4-11.5h3l4,11.5H89.9z M88.5,19.6c-0.8-2.5-1.2-3.9-1.3-4.2
		S87,14.8,87,14.6c-0.2,0.7-0.7,2.3-1.5,4.9H88.5z"/>
	<path class="st1" d="M96.2,20v4.4h-2.4V12.9h3.3c1.6,0,2.7,0.3,3.4,0.8s1.1,1.4,1.1,2.6c0,0.7-0.2,1.3-0.6,1.8s-0.9,0.9-1.6,1.2
		c1.7,2.6,2.8,4.2,3.4,5h-2.7L97.5,20H96.2z M96.2,18h0.8c0.8,0,1.3-0.1,1.7-0.4s0.5-0.7,0.5-1.2c0-0.5-0.2-0.9-0.6-1.2
		s-0.9-0.3-1.7-0.3h-0.7V18z"/>
</g>
</svg>
