<?xml version="1.0" encoding="utf-8"?>
<!-- Generator: Adobe Illustrator 19.0.0, SVG Export Plug-In . SVG Version: 6.00 Build 0)  -->
<svg version="1.1" id="Capa_1" xmlns="http://www.w3.org/2000/svg" xmlns:xlink="http://www.w3.org/1999/xlink" x="0px" y="0px"
	 viewBox="-228 304.2 154.4 185.8" style="enable-background:new -228 304.2 154.4 185.8;" xml:space="preserve">
<style type="text/css">
	.st0{fill:#EAEAEA;}
	.st1{fill:#FFFFFF;}
	.st2{fill:#CC4C4C;}
	.st3{enable-background:new    ;}
</style>
<g>
	<path class="st0" d="M-78.6,490H-223c-2.8,0-5-2.3-5-5V309.2c0-2.8,2.3-5,5-5h144.4c2.8,0,5,2.3,5,5V485
		C-73.6,487.8-75.9,490-78.6,490z"/>
	<rect x="-211.7" y="323.1" class="st1" width="120.2" height="24"/>
	<rect x="-211.7" y="355.2" class="st1" width="120.2" height="24"/>
	<rect x="-211.7" y="387.4" class="st1" width="120.2" height="24"/>
	<rect x="-211.7" y="419.5" class="st1" width="120.2" height="24"/>
	<rect x="-149.7" y="452.6" class="st2" width="58.5" height="20.3"/>
	<g class="st3">
		<path class="st1" d="M-131.1,465.9h-3.6v-6.2h3.6v1.1h-2.3v1.4h2.1v1.1h-2.1v1.6h2.3V465.9z"/>
		<path class="st1" d="M-124.3,465.9h-1.7l-2.7-4.7h0c0.1,0.8,0.1,1.4,0.1,1.8v2.9h-1.2v-6.2h1.7l2.7,4.7h0c0-0.8-0.1-1.4-0.1-1.7
			v-2.9h1.2V465.9z"/>
		<path class="st1" d="M-119.2,459.7h1.3l-2.1,6.2h-1.4l-2.1-6.2h1.3l1.2,3.7c0.1,0.2,0.1,0.5,0.2,0.8s0.1,0.5,0.1,0.6
			c0-0.3,0.1-0.7,0.3-1.4L-119.2,459.7z"/>
		<path class="st1" d="M-117.1,465.9v-6.2h1.3v6.2H-117.1z"/>
		<path class="st1" d="M-110.4,465.9l-0.5-1.5h-2.3l-0.5,1.5h-1.4l2.2-6.2h1.6l2.2,6.2H-110.4z M-111.1,463.3
			c-0.4-1.3-0.7-2.1-0.7-2.3c-0.1-0.2-0.1-0.3-0.1-0.4c-0.1,0.4-0.4,1.3-0.8,2.7H-111.1z"/>
		<path class="st1" d="M-106.8,463.5v2.4h-1.3v-6.2h1.8c0.8,0,1.5,0.2,1.9,0.5c0.4,0.3,0.6,0.8,0.6,1.4c0,0.4-0.1,0.7-0.3,1
			c-0.2,0.3-0.5,0.5-0.9,0.7c0.9,1.4,1.5,2.3,1.8,2.7h-1.5l-1.5-2.4H-106.8z M-106.8,462.4h0.4c0.4,0,0.7-0.1,0.9-0.2
			c0.2-0.1,0.3-0.4,0.3-0.7c0-0.3-0.1-0.5-0.3-0.6s-0.5-0.2-0.9-0.2h-0.4V462.4z"/>
	</g>
</g>
</svg>
