<?xml version="1.0" encoding="utf-8"?>
<!-- Generator: Adobe Illustrator 19.0.0, SVG Export Plug-In . SVG Version: 6.00 Build 0)  -->
<svg version="1.1" id="Capa_1" xmlns="http://www.w3.org/2000/svg" xmlns:xlink="http://www.w3.org/1999/xlink" x="0px" y="0px"
	 viewBox="-246 337.9 118.1 118.1" style="enable-background:new -246 337.9 118.1 118.1;" xml:space="preserve">
<style type="text/css">
	.st0{fill:#78ACEA;}
	.st1{enable-background:new    ;}
	.st2{fill:#FFFFFF;}
</style>
<g>
	<circle class="st0" cx="-186.9" cy="397" r="59.1"/>
	<g class="st1">
		<path class="st2" d="M-165.6,430.7h-42.3v-8.9l15.2-15.3c4.5-4.6,7.4-7.8,8.8-9.6s2.4-3.4,3-4.9c0.6-1.5,0.9-3.1,0.9-4.7
			c0-2.4-0.7-4.2-2-5.4c-1.3-1.2-3.1-1.8-5.4-1.8c-2.3,0-4.6,0.5-6.8,1.6c-2.2,1.1-4.5,2.6-6.9,4.6l-6.9-8.2c3-2.5,5.4-4.3,7.4-5.4
			c2-1,4.1-1.9,6.4-2.4c2.3-0.6,4.9-0.8,7.8-0.8c3.8,0,7.1,0.7,10,2.1c2.9,1.4,5.1,3.3,6.7,5.8c1.6,2.5,2.4,5.3,2.4,8.5
			c0,2.8-0.5,5.4-1.5,7.8c-1,2.4-2.5,4.9-4.5,7.5c-2.1,2.6-5.7,6.2-10.9,11l-7.8,7.3v0.6h26.3V430.7z"/>
	</g>
</g>
</svg>
