<?xml version="1.0" encoding="utf-8"?>
<!-- Generator: Adobe Illustrator 19.2.1, SVG Export Plug-In . SVG Version: 6.00 Build 0)  -->
<svg version="1.1" id="Capa_1" xmlns="http://www.w3.org/2000/svg" xmlns:xlink="http://www.w3.org/1999/xlink" x="0px" y="0px"
	 viewBox="0 0 1175.3 332.8" style="enable-background:new 0 0 1175.3 332.8;" xml:space="preserve">
<style type="text/css">
	.st0{fill:#FFFFFF;}
</style>
<g>
	<g>
		<path class="st0" d="M387.1,129.3h9.7v14.9c1.8-2.5,3.9-4.8,6.2-7.1c11.6-11.5,25.6-17.3,42-17.3c16.4,0,30.4,5.8,42,17.4
			c11.6,11.6,17.4,25.6,17.4,42c0,16.4-5.8,30.3-17.4,42c-11.6,11.6-25.6,17.4-42,17.4c-16.4,0-30.3-5.8-42-17.4
			c-2.3-2.3-4.4-4.7-6.2-7.1v86.6h-9.7V129.3z M396.8,169v20.3c1.9,9.3,6.3,17.5,13.4,24.5c9.6,9.6,21.2,14.4,34.7,14.4
			c13.6,0,25.1-4.8,34.7-14.4c9.6-9.6,14.4-21.2,14.4-34.7c0-13.6-4.8-25.1-14.4-34.7c-9.6-9.6-21.2-14.4-34.7-14.4
			c-13.6,0-25.1,4.8-34.7,14.4C403.2,151.5,398.7,159.7,396.8,169z"/>
		<path class="st0" d="M575.1,237c-13.3,0-23.8-3.9-31.7-11.8c-7.9-7.9-11.9-17.8-12.1-29.7v-66.2h9.7v65.3c0,9,3.3,16.7,9.8,23
			c6.5,6.4,14.5,9.6,24.1,9.6c8.9,0,16.7-3.2,23.2-9.6c6.5-6.4,9.8-14.1,9.8-23.1v-65.3h9.7v66.2c-0.2,12-4.3,21.9-12.1,29.7
			C597.7,233.1,587.6,237,575.1,237z"/>
		<path class="st0" d="M650.1,62.5h9.7v81.7c1.8-2.5,3.9-4.8,6.2-7.1c11.6-11.6,25.6-17.4,42-17.4c16.4,0,30.4,5.8,42,17.4
			c11.6,11.6,17.4,25.6,17.4,42.1c0,16.4-5.8,30.3-17.4,42c-11.6,11.6-25.6,17.4-42,17.4c-16.4,0-30.3-5.8-42-17.4
			c-2.3-2.3-4.4-4.7-6.2-7.1v21.5h-9.7V62.5z M659.9,169v20.3c1.9,9.2,6.3,17.4,13.4,24.4c9.6,9.6,21.2,14.4,34.7,14.4
			c13.6,0,25.1-4.8,34.7-14.3c9.6-9.5,14.4-21.1,14.4-34.7c0-13.6-4.8-25.1-14.4-34.7c-9.6-9.6-21.2-14.4-34.7-14.4
			c-13.6,0-25.1,4.8-34.7,14.4C666.2,151.5,661.7,159.7,659.9,169z"/>
		<path class="st0" d="M806.8,62.5v173h-9.7v-173H806.8z"/>
		<path class="st0" d="M853.1,94.5c1.9,1.9,2.9,4.1,2.9,6.8c0,2.7-1,5-2.9,6.9c-1.9,1.9-4.2,2.8-6.9,2.8c-2.7,0-5-0.9-6.9-2.8
			c-1.9-1.9-2.9-4.2-2.9-6.9c0-2.7,1-4.9,2.9-6.8c1.9-1.9,4.2-2.8,6.9-2.8C848.9,91.7,851.2,92.6,853.1,94.5z M851.1,129.3v106.2
			h-9.7V129.3H851.1z"/>
		<path class="st0" d="M895.5,153v82.5h-9.7V129.3h9.7v6.8c8.9-8.8,19.2-13.2,30.9-13.2c12.5,0,22.7,3.9,30.6,11.8
			c7.9,7.9,11.9,17.8,12.1,29.7v71h-9.7v-70.2c0-9-3.3-16.7-9.8-23.1c-6.5-6.4-14.3-9.6-23.2-9.6c-8.9,0-16.7,3.1-23.1,9.4
			C899.7,145.6,897.1,149.2,895.5,153z"/>
		<path class="st0" d="M1021.8,215.6c9.2,8.4,20,12.5,32.7,12.5c13.6,0,25.1-4.8,34.7-14.4c1.2-1.2,2.4-2.5,3.5-3.8l10.3,3.7
			c-1.9,2.6-4,5.1-6.4,7.5c-11.6,11.6-25.6,17.4-42.1,17.4c-16.4,0-30.3-5.8-41.9-17.4c-11.6-11.6-17.4-25.6-17.4-42.1
			c0-16.4,5.8-30.3,17.4-42c11.6-11.6,25.6-17.4,41.9-17.4c14.1,0,26.3,4.2,36.9,12.7c1.7,1.4,3.5,3,5.2,4.8
			c0.6,0.6,1.3,1.3,1.8,1.9l-7.4,7.4L1021.8,215.6z M1083.8,139.8c-8.4-6.5-18.2-9.7-29.4-9.7c-13.5,0-25,4.8-34.6,14.3
			c-9.6,9.6-14.4,21.1-14.4,34.7c0,11.2,3.2,21,9.7,29.4L1083.8,139.8z"/>
		<path class="st0" d="M1143.9,129.3V84.1h9.7v45.2h21.6v9.7h-21.6v96.4h-9.7V139h-21.6v-9.7H1143.9z"/>
	</g>
	<g>
		<g>
			<path class="st0" d="M434.3,263.2V300h-3.3v-36.9H434.3z"/>
			<path class="st0" d="M465,273.8c1.6,0.8,2.9,1.8,3.9,3c1.1,1.3,1.9,2.8,2.4,4.5c0.6,1.7,0.8,3.5,0.8,5.4s-0.3,3.7-0.8,5.4
				c-0.6,1.7-1.4,3.2-2.4,4.5c-1.1,1.3-2.4,2.3-3.9,3c-1.6,0.7-3.4,1.1-5.4,1.1s-3.8-0.4-5.4-1.1c-1.6-0.7-2.9-1.7-3.9-3
				c-1.1-1.3-1.9-2.8-2.4-4.5c-0.6-1.7-0.8-3.5-0.8-5.4s0.3-3.7,0.8-5.4c0.5-1.7,1.4-3.2,2.4-4.5c1.1-1.3,2.4-2.3,3.9-3
				c1.6-0.8,3.4-1.1,5.4-1.1S463.4,273,465,273.8z M455.5,276.3c-1.2,0.7-2.1,1.5-2.9,2.6c-0.8,1.1-1.4,2.3-1.8,3.6
				c-0.4,1.4-0.6,2.7-0.6,4.2s0.2,2.8,0.6,4.2c0.4,1.4,1,2.6,1.8,3.6c0.8,1.1,1.7,1.9,2.9,2.6c1.2,0.7,2.5,1,4.1,1
				c1.5,0,2.9-0.3,4.1-1c1.2-0.7,2.1-1.5,2.9-2.6c0.8-1.1,1.4-2.3,1.8-3.6c0.4-1.4,0.6-2.7,0.6-4.2s-0.2-2.8-0.6-4.2
				c-0.4-1.4-1-2.6-1.8-3.6c-0.8-1.1-1.7-1.9-2.9-2.6c-1.2-0.7-2.5-1-4.1-1C458,275.4,456.7,275.7,455.5,276.3z"/>
			<path class="st0" d="M527.1,309.9V295H527c-0.3,1-0.8,1.8-1.5,2.5c-0.6,0.7-1.4,1.3-2.2,1.8c-0.8,0.5-1.7,0.8-2.7,1.1
				c-0.9,0.2-1.9,0.4-2.9,0.4c-2,0-3.8-0.4-5.3-1.1c-1.5-0.7-2.7-1.8-3.7-3c-1-1.3-1.7-2.8-2.2-4.5c-0.5-1.7-0.7-3.5-0.7-5.4
				s0.2-3.7,0.7-5.4c0.5-1.7,1.2-3.2,2.2-4.5c1-1.3,2.2-2.3,3.7-3.1c1.5-0.8,3.3-1.1,5.3-1.1c1,0,1.9,0.1,2.9,0.4
				c1,0.3,1.9,0.7,2.8,1.2c0.9,0.5,1.6,1.1,2.3,1.8c0.7,0.7,1.2,1.5,1.5,2.4h0.1v-5.1h3v36.4H527.1z M509.5,290.8
				c0.3,1.4,0.8,2.6,1.5,3.6c0.7,1.1,1.6,1.9,2.7,2.6c1.1,0.7,2.4,1,4,1c1.7,0,3.2-0.3,4.4-1s2.2-1.5,2.9-2.6
				c0.7-1.1,1.3-2.3,1.6-3.6c0.3-1.4,0.5-2.7,0.5-4.1s-0.2-2.7-0.5-4.1c-0.3-1.4-0.9-2.6-1.6-3.6c-0.7-1.1-1.7-1.9-2.9-2.6
				s-2.6-1-4.4-1c-1.5,0-2.9,0.3-4,1c-1.1,0.7-2,1.5-2.7,2.6c-0.7,1.1-1.2,2.3-1.5,3.6c-0.3,1.4-0.5,2.7-0.5,4.1
				S509.2,289.5,509.5,290.8z"/>
			<path class="st0" d="M562.8,300v-4.8h-0.1c-0.9,1.8-2.1,3.2-3.7,4.1c-1.6,0.9-3.5,1.4-5.4,1.4c-1.7,0-3.1-0.2-4.3-0.7
				c-1.2-0.5-2.2-1.1-2.9-2c-0.7-0.9-1.3-1.9-1.6-3.1c-0.3-1.2-0.5-2.6-0.5-4.2v-17.3h3.3v17.3c0.1,2.4,0.6,4.2,1.7,5.5
				c1,1.2,2.9,1.9,5.4,1.9c1.4,0,2.6-0.3,3.6-0.9c1-0.6,1.8-1.4,2.5-2.4c0.7-1,1.1-2.1,1.4-3.4c0.3-1.3,0.5-2.6,0.5-3.9v-14h3.3V300
				H562.8z"/>
			<path class="st0" d="M582.1,291.2c0.3,1.3,0.9,2.4,1.6,3.4c0.7,1,1.6,1.8,2.7,2.5c1.1,0.7,2.4,1,4,1c2.4,0,4.2-0.6,5.6-1.9
				c1.3-1.2,2.3-2.9,2.8-5h3.3c-0.7,3-2,5.4-3.8,7c-1.8,1.7-4.4,2.5-7.8,2.5c-2.1,0-3.9-0.4-5.4-1.1c-1.5-0.7-2.8-1.8-3.7-3
				c-1-1.3-1.7-2.8-2.1-4.5c-0.5-1.7-0.7-3.5-0.7-5.4c0-1.8,0.2-3.5,0.7-5.2c0.5-1.7,1.2-3.2,2.1-4.5c1-1.3,2.2-2.4,3.7-3.2
				c1.5-0.8,3.3-1.2,5.4-1.2c2.1,0,4,0.4,5.5,1.3c1.5,0.9,2.7,2,3.7,3.4c0.9,1.4,1.6,3,2,4.8c0.4,1.8,0.6,3.6,0.5,5.5h-20.5
				C581.6,288.8,581.8,290,582.1,291.2z M598.2,281.3c-0.4-1.1-1-2.1-1.7-3c-0.7-0.9-1.6-1.6-2.6-2.1c-1-0.5-2.2-0.8-3.5-0.8
				c-1.3,0-2.5,0.3-3.6,0.8c-1,0.5-1.9,1.2-2.6,2.1c-0.7,0.9-1.3,1.9-1.7,3c-0.4,1.2-0.7,2.3-0.9,3.5h17.2
				C598.8,283.6,598.6,282.4,598.2,281.3z"/>
			<path class="st0" d="M639.6,263.2v15.3h0.1c0.3-1,0.8-1.8,1.5-2.5c0.6-0.7,1.4-1.3,2.2-1.8s1.7-0.9,2.7-1.1
				c1-0.2,1.9-0.4,2.9-0.4c2,0,3.8,0.4,5.3,1.1c1.5,0.8,2.7,1.8,3.7,3.1c1,1.3,1.7,2.8,2.2,4.5c0.5,1.7,0.7,3.5,0.7,5.4
				s-0.2,3.7-0.7,5.4c-0.5,1.7-1.2,3.2-2.2,4.5c-1,1.3-2.2,2.3-3.7,3c-1.5,0.7-3.3,1.1-5.3,1.1c-2.2,0-4.1-0.5-5.8-1.5
				c-1.7-1-2.9-2.4-3.7-4.3h-0.1v5.1h-3v-36.9H639.6z M657.2,282.6c-0.3-1.4-0.8-2.6-1.5-3.6c-0.7-1.1-1.6-1.9-2.7-2.6
				c-1.1-0.7-2.4-1-4-1c-1.7,0-3.2,0.3-4.4,1s-2.2,1.5-2.9,2.6c-0.7,1.1-1.3,2.3-1.6,3.6c-0.3,1.4-0.5,2.7-0.5,4.1s0.2,2.7,0.5,4.1
				c0.3,1.4,0.9,2.6,1.6,3.6c0.7,1.1,1.7,1.9,2.9,2.6s2.6,1,4.4,1c1.5,0,2.9-0.3,4-1c1.1-0.7,2-1.5,2.7-2.6c0.7-1.1,1.2-2.3,1.5-3.6
				c0.3-1.4,0.5-2.7,0.5-4.1S657.5,284,657.2,282.6z"/>
			<path class="st0" d="M692.3,300v-4.8h-0.1c-0.9,1.8-2.1,3.2-3.7,4.1s-3.5,1.4-5.4,1.4c-1.7,0-3.1-0.2-4.3-0.7
				c-1.2-0.5-2.2-1.1-2.9-2c-0.7-0.9-1.3-1.9-1.6-3.1c-0.3-1.2-0.5-2.6-0.5-4.2v-17.3h3.3v17.3c0.1,2.4,0.6,4.2,1.7,5.5
				c1,1.2,2.9,1.9,5.4,1.9c1.4,0,2.6-0.3,3.6-0.9c1-0.6,1.8-1.4,2.5-2.4c0.7-1,1.1-2.1,1.4-3.4c0.3-1.3,0.5-2.6,0.5-3.9v-14h3.3V300
				H692.3z"/>
			<path class="st0" d="M724.5,278.6c-0.4-0.7-0.9-1.4-1.5-1.8c-0.6-0.5-1.4-0.8-2.2-1.1s-1.7-0.3-2.6-0.3c-0.7,0-1.5,0.1-2.2,0.2
				c-0.7,0.2-1.4,0.4-2,0.8c-0.6,0.4-1.1,0.8-1.5,1.4c-0.4,0.6-0.6,1.3-0.6,2.2c0,0.7,0.2,1.3,0.5,1.8s0.8,0.9,1.4,1.3
				c0.5,0.3,1.2,0.6,1.8,0.9c0.7,0.2,1.3,0.4,1.8,0.5l4.3,1c0.9,0.1,1.8,0.4,2.8,0.7c0.9,0.4,1.7,0.8,2.4,1.4
				c0.7,0.6,1.3,1.3,1.7,2.2s0.7,1.9,0.7,3c0,1.4-0.3,2.7-1,3.7c-0.7,1-1.5,1.8-2.5,2.5c-1,0.6-2.2,1.1-3.4,1.4
				c-1.3,0.3-2.5,0.4-3.8,0.4c-3.1,0-5.7-0.7-7.6-2.2c-1.9-1.5-3.1-3.9-3.3-7.1h3.3c0.1,2.2,0.9,3.9,2.4,5c1.5,1.1,3.3,1.7,5.4,1.7
				c0.8,0,1.6-0.1,2.5-0.3c0.8-0.2,1.6-0.5,2.3-0.9c0.7-0.4,1.3-0.9,1.8-1.6c0.5-0.6,0.7-1.4,0.7-2.3c0-0.8-0.2-1.5-0.5-2
				c-0.3-0.5-0.8-1-1.3-1.3c-0.6-0.4-1.2-0.7-1.9-0.9c-0.7-0.2-1.4-0.4-2.1-0.6l-4.2-0.9c-1.1-0.3-2-0.6-2.9-1
				c-0.9-0.4-1.7-0.8-2.3-1.3c-0.7-0.5-1.2-1.2-1.6-2c-0.4-0.8-0.6-1.7-0.6-2.9c0-1.3,0.3-2.5,0.9-3.5c0.6-1,1.4-1.7,2.3-2.3
				c1-0.6,2-1,3.2-1.3c1.2-0.3,2.4-0.4,3.5-0.4c1.3,0,2.6,0.2,3.7,0.5c1.2,0.3,2.2,0.9,3,1.6c0.9,0.7,1.6,1.6,2.1,2.7
				c0.5,1.1,0.8,2.3,0.9,3.8h-3.3C725.1,280.2,724.9,279.3,724.5,278.6z"/>
			<path class="st0" d="M758.1,277.1c-1.2-1.1-2.9-1.7-5.1-1.7c-1.5,0-2.9,0.3-4.1,1c-1.2,0.7-2.1,1.5-2.9,2.6
				c-0.8,1.1-1.4,2.3-1.8,3.6c-0.4,1.4-0.6,2.7-0.6,4.2s0.2,2.8,0.6,4.2c0.4,1.4,1,2.6,1.8,3.6c0.8,1.1,1.7,1.9,2.9,2.6
				c1.2,0.7,2.5,1,4.1,1c1,0,1.9-0.2,2.8-0.6c0.9-0.4,1.7-0.9,2.4-1.6s1.3-1.5,1.7-2.4c0.4-0.9,0.7-1.9,0.8-3h3.3
				c-0.4,3.2-1.6,5.8-3.6,7.6c-1.9,1.8-4.4,2.7-7.4,2.7c-2,0-3.8-0.4-5.4-1.1c-1.6-0.7-2.9-1.7-3.9-3c-1.1-1.3-1.9-2.8-2.4-4.5
				s-0.8-3.5-0.8-5.4s0.3-3.7,0.8-5.4c0.6-1.7,1.4-3.2,2.4-4.5c1.1-1.3,2.4-2.3,3.9-3c1.6-0.8,3.4-1.1,5.4-1.1
				c2.9,0,5.3,0.8,7.3,2.3c2,1.5,3.2,3.8,3.5,6.9h-3.3C760.1,279.8,759.3,278.2,758.1,277.1z"/>
			<path class="st0" d="M777,277.5c0.6-1.1,1.3-2.1,2.2-2.8c0.9-0.7,2.1-1.3,3.3-1.6c1.3-0.3,2.7-0.5,4.2-0.5c1.2,0,2.3,0.1,3.5,0.3
				c1.2,0.2,2.2,0.6,3.1,1.3c0.9,0.6,1.7,1.5,2.3,2.6c0.6,1.1,0.9,2.6,0.9,4.4v14.1c0,1.3,0.6,2,1.9,2c0.4,0,0.7-0.1,1-0.2v2.7
				c-0.4,0.1-0.7,0.1-1,0.2c-0.3,0-0.7,0.1-1.1,0.1c-0.8,0-1.5-0.1-2-0.3c-0.5-0.2-0.9-0.5-1.2-1s-0.5-0.9-0.5-1.5
				c-0.1-0.6-0.1-1.2-0.1-1.9h-0.1c-0.6,0.9-1.2,1.6-1.8,2.3c-0.6,0.7-1.3,1.2-2,1.7c-0.7,0.4-1.6,0.8-2.5,1
				c-0.9,0.2-2.1,0.4-3.4,0.4c-1.2,0-2.4-0.1-3.5-0.4s-2-0.8-2.8-1.4c-0.8-0.6-1.4-1.4-1.9-2.4c-0.5-1-0.7-2.1-0.7-3.5
				c0-1.9,0.4-3.3,1.2-4.4c0.8-1,1.9-1.8,3.3-2.4s2.9-0.9,4.6-1.2c1.7-0.2,3.4-0.4,5.2-0.6c0.7-0.1,1.3-0.2,1.8-0.3s0.9-0.3,1.3-0.5
				c0.3-0.3,0.6-0.6,0.8-1.1c0.2-0.4,0.3-1,0.3-1.8c0-1.1-0.2-2-0.5-2.7c-0.4-0.7-0.9-1.3-1.5-1.7c-0.6-0.4-1.4-0.7-2.2-0.9
				c-0.8-0.2-1.7-0.2-2.7-0.2c-2.1,0-3.8,0.5-5.1,1.5c-1.3,1-2,2.6-2.1,4.7H776C776.1,280,776.4,278.7,777,277.5z M793.2,285.5
				c-0.2,0.4-0.6,0.7-1.2,0.8c-0.6,0.2-1.1,0.3-1.5,0.4c-1.4,0.2-2.8,0.5-4.3,0.6c-1.5,0.2-2.8,0.5-4,0.9c-1.2,0.4-2.2,0.9-3,1.6
				c-0.8,0.7-1.2,1.7-1.2,3c0,0.8,0.2,1.6,0.5,2.2s0.8,1.2,1.3,1.7c0.5,0.5,1.2,0.8,1.9,1.1c0.7,0.2,1.5,0.4,2.2,0.4
				c1.2,0,2.4-0.2,3.6-0.6s2.1-0.9,3-1.7s1.5-1.6,2-2.6c0.5-1,0.7-2.2,0.7-3.5v-4.2H793.2z"/>
			<path class="st0" d="M826.2,278.6c-0.4-0.7-0.9-1.4-1.5-1.8c-0.6-0.5-1.4-0.8-2.2-1.1s-1.7-0.3-2.6-0.3c-0.7,0-1.5,0.1-2.2,0.2
				c-0.7,0.2-1.4,0.4-2,0.8c-0.6,0.4-1.1,0.8-1.5,1.4c-0.4,0.6-0.6,1.3-0.6,2.2c0,0.7,0.2,1.3,0.5,1.8s0.8,0.9,1.4,1.3
				c0.5,0.3,1.2,0.6,1.8,0.9c0.7,0.2,1.3,0.4,1.8,0.5l4.3,1c0.9,0.1,1.8,0.4,2.8,0.7c0.9,0.4,1.7,0.8,2.4,1.4
				c0.7,0.6,1.3,1.3,1.7,2.2s0.7,1.9,0.7,3c0,1.4-0.3,2.7-1,3.7c-0.7,1-1.5,1.8-2.5,2.5c-1,0.6-2.2,1.1-3.4,1.4
				c-1.3,0.3-2.5,0.4-3.8,0.4c-3.1,0-5.7-0.7-7.6-2.2c-1.9-1.5-3.1-3.9-3.3-7.1h3.3c0.1,2.2,0.9,3.9,2.4,5c1.5,1.1,3.3,1.7,5.4,1.7
				c0.8,0,1.6-0.1,2.5-0.3c0.8-0.2,1.6-0.5,2.3-0.9c0.7-0.4,1.3-0.9,1.8-1.6c0.5-0.6,0.7-1.4,0.7-2.3c0-0.8-0.2-1.5-0.5-2
				c-0.3-0.5-0.8-1-1.3-1.3c-0.6-0.4-1.2-0.7-1.9-0.9c-0.7-0.2-1.4-0.4-2.1-0.6l-4.2-0.9c-1.1-0.3-2-0.6-2.9-1
				c-0.9-0.4-1.7-0.8-2.3-1.3c-0.7-0.5-1.2-1.2-1.6-2c-0.4-0.8-0.6-1.7-0.6-2.9c0-1.3,0.3-2.5,0.9-3.5c0.6-1,1.4-1.7,2.3-2.3
				c1-0.6,2-1,3.2-1.3c1.2-0.3,2.4-0.4,3.5-0.4c1.3,0,2.6,0.2,3.7,0.5c1.2,0.3,2.2,0.9,3,1.6c0.9,0.7,1.6,1.6,2.1,2.7
				c0.5,1.1,0.8,2.3,0.9,3.8h-3.3C826.8,280.2,826.6,279.3,826.2,278.6z"/>
			<path class="st0" d="M867.9,291.2c0.3,1.3,0.9,2.4,1.6,3.4c0.7,1,1.6,1.8,2.7,2.5c1.1,0.7,2.4,1,4,1c2.4,0,4.2-0.6,5.6-1.9
				c1.3-1.2,2.3-2.9,2.8-5h3.3c-0.7,3-2,5.4-3.8,7c-1.8,1.7-4.4,2.5-7.8,2.5c-2.1,0-3.9-0.4-5.4-1.1c-1.5-0.7-2.8-1.8-3.7-3
				c-1-1.3-1.7-2.8-2.1-4.5c-0.5-1.7-0.7-3.5-0.7-5.4c0-1.8,0.2-3.5,0.7-5.2c0.5-1.7,1.2-3.2,2.1-4.5c1-1.3,2.2-2.4,3.7-3.2
				c1.5-0.8,3.3-1.2,5.4-1.2c2.1,0,4,0.4,5.5,1.3c1.5,0.9,2.7,2,3.7,3.4c0.9,1.4,1.6,3,2,4.8s0.6,3.6,0.5,5.5h-20.5
				C867.4,288.8,867.6,290,867.9,291.2z M884,281.3c-0.4-1.1-1-2.1-1.7-3s-1.6-1.6-2.6-2.1c-1-0.5-2.2-0.8-3.5-0.8
				c-1.3,0-2.5,0.3-3.6,0.8c-1,0.5-1.9,1.2-2.6,2.1s-1.3,1.9-1.7,3c-0.4,1.2-0.7,2.3-0.9,3.5h17.2
				C884.6,283.6,884.4,282.4,884,281.3z"/>
			<path class="st0" d="M903.3,273.4v4.6h0.1c0.6-1.6,1.7-2.9,3.3-3.9c1.6-1,3.3-1.5,5.2-1.5c1.9,0,3.4,0.2,4.7,0.7
				c1.3,0.5,2.3,1.2,3,2c0.8,0.9,1.3,2,1.6,3.2s0.5,2.7,0.5,4.3V300h-3.3v-16.6c0-1.1-0.1-2.2-0.3-3.2c-0.2-1-0.6-1.8-1.1-2.6
				s-1.2-1.3-2.1-1.7c-0.9-0.4-2-0.6-3.3-0.6c-1.3,0-2.5,0.2-3.5,0.7c-1,0.5-1.9,1.1-2.6,1.9c-0.7,0.8-1.3,1.8-1.7,2.9
				c-0.4,1.1-0.6,2.3-0.6,3.6V300H900v-26.6H903.3z"/>
			<path class="st0" d="M960.9,263.2v5.2h-3.3v-5.2H960.9z M960.9,273.4V300h-3.3v-26.6H960.9z"/>
			<path class="st0" d="M978.1,273.4v4.6h0.1c0.6-1.6,1.7-2.9,3.3-3.9c1.6-1,3.3-1.5,5.2-1.5c1.9,0,3.4,0.2,4.7,0.7
				c1.3,0.5,2.3,1.2,3,2c0.8,0.9,1.3,2,1.6,3.2s0.5,2.7,0.5,4.3V300h-3.3v-16.6c0-1.1-0.1-2.2-0.3-3.2c-0.2-1-0.6-1.8-1.1-2.6
				s-1.2-1.3-2.1-1.7c-0.9-0.4-2-0.6-3.3-0.6c-1.3,0-2.5,0.2-3.5,0.7c-1,0.5-1.9,1.1-2.6,1.9c-0.7,0.8-1.3,1.8-1.7,2.9
				c-0.4,1.1-0.6,2.3-0.6,3.6V300h-3.3v-26.6H978.1z"/>
			<path class="st0" d="M1021,273.4v2.7h-5.4v18c0,1.1,0.1,1.9,0.4,2.5c0.3,0.6,1,0.9,2.2,1c0.9,0,1.9-0.1,2.8-0.2v2.7
				c-0.5,0-1,0-1.4,0.1c-0.5,0-1,0.1-1.4,0.1c-2.2,0-3.7-0.4-4.5-1.3c-0.9-0.8-1.3-2.4-1.2-4.7v-18.2h-4.6v-2.7h4.6v-8h3.3v8H1021z"
				/>
			<path class="st0" d="M1035.8,291.2c0.3,1.3,0.9,2.4,1.6,3.4c0.7,1,1.6,1.8,2.7,2.5c1.1,0.7,2.4,1,4,1c2.4,0,4.2-0.6,5.6-1.9
				c1.3-1.2,2.3-2.9,2.8-5h3.3c-0.7,3-2,5.4-3.8,7c-1.8,1.7-4.4,2.5-7.8,2.5c-2.1,0-3.9-0.4-5.4-1.1c-1.5-0.7-2.8-1.8-3.7-3
				c-1-1.3-1.7-2.8-2.1-4.5c-0.5-1.7-0.7-3.5-0.7-5.4c0-1.8,0.2-3.5,0.7-5.2c0.5-1.7,1.2-3.2,2.1-4.5c1-1.3,2.2-2.4,3.7-3.2
				c1.5-0.8,3.3-1.2,5.4-1.2c2.1,0,4,0.4,5.5,1.3c1.5,0.9,2.7,2,3.7,3.4c0.9,1.4,1.6,3,2,4.8s0.6,3.6,0.5,5.5h-20.5
				C1035.3,288.8,1035.5,290,1035.8,291.2z M1051.9,281.3c-0.4-1.1-1-2.1-1.7-3s-1.6-1.6-2.6-2.1c-1-0.5-2.2-0.8-3.5-0.8
				c-1.3,0-2.5,0.3-3.6,0.8c-1,0.5-1.9,1.2-2.6,2.1s-1.3,1.9-1.7,3c-0.4,1.2-0.7,2.3-0.9,3.5h17.2
				C1052.5,283.6,1052.3,282.4,1051.9,281.3z"/>
			<path class="st0" d="M1070.9,273.4v6.2h0.1c0.8-2.2,2.1-3.8,3.8-5c1.7-1.2,3.8-1.7,6.2-1.6v3.3c-1.5-0.1-2.8,0.1-4,0.6
				c-1.2,0.5-2.2,1.1-3.1,2s-1.6,1.9-2,3.1c-0.5,1.2-0.7,2.5-0.7,3.9V300h-3.3v-26.6H1070.9z"/>
			<path class="st0" d="M1096.1,273.4v4.6h0.1c0.6-1.6,1.7-2.9,3.3-3.9c1.6-1,3.3-1.5,5.2-1.5c1.9,0,3.4,0.2,4.7,0.7
				c1.3,0.5,2.3,1.2,3,2c0.8,0.9,1.3,2,1.6,3.2s0.5,2.7,0.5,4.3V300h-3.3v-16.6c0-1.1-0.1-2.2-0.3-3.2c-0.2-1-0.6-1.8-1.1-2.6
				s-1.2-1.3-2.1-1.7c-0.9-0.4-2-0.6-3.3-0.6c-1.3,0-2.5,0.2-3.5,0.7c-1,0.5-1.9,1.1-2.6,1.9c-0.7,0.8-1.3,1.8-1.7,2.9
				c-0.4,1.1-0.6,2.3-0.6,3.6V300h-3.3v-26.6H1096.1z"/>
			<path class="st0" d="M1130.8,291.2c0.3,1.3,0.9,2.4,1.6,3.4c0.7,1,1.6,1.8,2.7,2.5c1.1,0.7,2.4,1,4,1c2.4,0,4.2-0.6,5.6-1.9
				c1.3-1.2,2.3-2.9,2.8-5h3.3c-0.7,3-2,5.4-3.8,7c-1.8,1.7-4.4,2.5-7.8,2.5c-2.1,0-3.9-0.4-5.4-1.1c-1.5-0.7-2.8-1.8-3.7-3
				c-1-1.3-1.7-2.8-2.1-4.5c-0.5-1.7-0.7-3.5-0.7-5.4c0-1.8,0.2-3.5,0.7-5.2c0.5-1.7,1.2-3.2,2.1-4.5c1-1.3,2.2-2.4,3.7-3.2
				c1.5-0.8,3.3-1.2,5.4-1.2c2.1,0,4,0.4,5.5,1.3c1.5,0.9,2.7,2,3.7,3.4c0.9,1.4,1.6,3,2,4.8s0.6,3.6,0.5,5.5h-20.5
				C1130.3,288.8,1130.4,290,1130.8,291.2z M1146.9,281.3c-0.4-1.1-1-2.1-1.7-3s-1.6-1.6-2.6-2.1c-1-0.5-2.2-0.8-3.5-0.8
				c-1.3,0-2.5,0.3-3.6,0.8c-1,0.5-1.9,1.2-2.6,2.1s-1.3,1.9-1.7,3c-0.4,1.2-0.7,2.3-0.9,3.5h17.2
				C1147.5,283.6,1147.3,282.4,1146.9,281.3z"/>
			<path class="st0" d="M1173.5,273.4v2.7h-5.4v18c0,1.1,0.1,1.9,0.4,2.5c0.3,0.6,1,0.9,2.2,1c0.9,0,1.9-0.1,2.8-0.2v2.7
				c-0.5,0-1,0-1.4,0.1c-0.5,0-1,0.1-1.4,0.1c-2.2,0-3.7-0.4-4.5-1.3c-0.9-0.8-1.3-2.4-1.2-4.7v-18.2h-4.6v-2.7h4.6v-8h3.3v8H1173.5
				z"/>
		</g>
	</g>
	<g>
		<path class="st0" d="M242.9,225.1c13.6,0,25.1-4.8,34.7-14.3c9.6-9.5,14.4-21.1,14.4-34.7c0-13.6-4.8-25.1-14.4-34.7
			c-9.6-9.6-21.2-14.4-34.7-14.4c-13.6,0-25.4,4.8-35,14.4c-7.1,7.1-11.7,15.2-13.7,24.5v20.3c2,9.2,6.6,17.4,13.7,24.4
			C217.5,220.3,229.3,225.1,242.9,225.1z"/>
		<path class="st0" d="M105,225.2c13.6,0,25.1-4.8,34.7-14.4c9.6-9.6,14.4-21.2,14.4-34.7c0-13.6-4.8-25.1-14.4-34.7
			c-9.6-9.6-21.2-14.4-34.7-14.4c-13.6,0-24.9,4.8-34.5,14.4c-7.1,7.1-11.2,15.2-13.2,24.5v20.3c2,9.3,6.2,17.5,13.2,24.5
			C80.1,220.4,91.5,225.2,105,225.2z"/>
		<path class="st0" d="M194.3,2.5v138.7c2-2.4,4.1-4.8,6.4-7.1c11.6-11.6,25.7-17.4,42.1-17.4c16.4,0,30.5,5.8,42.1,17.4
			c11.6,11.6,17.4,25.6,17.4,42.1c0,16.4-5.8,30.3-17.3,42c-11.6,11.6-25.6,17.4-42,17.4c-16.4,0-30.6-5.8-42.2-17.4
			c-2.3-2.3-4.4-4.7-6.4-7.1v21.9h-9V1.1c-6-0.7-12.6-1.1-19-1.1C74.4,0,0,74.4,0,166.2c0,45.2,18.3,86.2,47.3,116.1V125.8h10v15.4
			c1-2.4,3.7-4.8,6-7.1c11.6-11.5,25.5-17.3,41.9-17.3c16.4,0,30.4,5.8,42,17.4c11.6,11.6,17.3,25.6,17.3,42
			c0,16.4-5.8,30.3-17.4,42c-11.6,11.6-25.6,17.4-42,17.4c-16.4,0-30.2-5.8-41.8-17.4c-2.3-2.3-5-4.7-6-7.1v80.6
			c29,25.5,67.2,40.9,109,40.9c91.8,0,165.9-74.4,165.9-166.2C332.2,84.2,273.3,16,194.3,2.5z"/>
	</g>
</g>
</svg>
